<?xml version="1.0" encoding="UTF-8"?>
<!DOCTYPE svg PUBLIC "-//W3C//DTD SVG 1.1//EN" "http://www.w3.org/Graphics/SVG/1.1/DTD/svg11.dtd">
<svg xmlns="http://www.w3.org/2000/svg" version="1.1" width="500px" height="500px" style="shape-rendering:geometricPrecision; text-rendering:geometricPrecision; image-rendering:optimizeQuality; fill-rule:evenodd; clip-rule:evenodd" xmlns:xlink="http://www.w3.org/1999/xlink">
<g><path style="opacity:1" fill="#272030" d="M -0.5,-0.5 C 166.167,-0.5 332.833,-0.5 499.5,-0.5C 499.5,166.167 499.5,332.833 499.5,499.5C 332.833,499.5 166.167,499.5 -0.5,499.5C -0.5,332.833 -0.5,166.167 -0.5,-0.5 Z"/></g>
<g><path style="opacity:1" fill="#332022" d="M 211.5,72.5 C 217.795,72.648 223.129,74.9813 227.5,79.5C 236.339,73.4824 244.339,74.4824 251.5,82.5C 265.12,76.8075 274.12,81.1409 278.5,95.5C 283.369,91.5387 288.202,91.5387 293,95.5C 294.728,98.7589 294.894,102.092 293.5,105.5C 298.769,108.709 300.769,113.376 299.5,119.5C 307.593,120.426 312.26,124.926 313.5,133C 311.543,138.33 310.043,143.83 309,149.5C 308.454,170.175 308.12,190.842 308,211.5C 318.602,205.315 323.269,196.315 322,184.5C 324,181.167 326,177.833 328,174.5C 328.296,170.91 327.796,167.41 326.5,164C 328.589,156.355 332.422,155.521 338,161.5C 339.922,166.061 339.755,170.561 337.5,175C 347.603,175.431 352.436,180.598 352,190.5C 349.721,193.974 347.888,197.64 346.5,201.5C 340.61,203.622 334.944,205.955 329.5,208.5C 323.039,216.795 315.206,223.462 306,228.5C 304.574,236.817 303.24,245.15 302,253.5C 294.429,259.369 286.596,264.869 278.5,270C 273.798,270.172 269.132,270.672 264.5,271.5C 265.738,277.74 268.571,283.074 273,287.5C 277.387,281.768 282.887,277.602 289.5,275C 302.525,273.357 308.025,278.857 306,291.5C 298.365,307.802 285.865,318.302 268.5,323C 266.098,323.814 263.765,323.647 261.5,322.5C 251.864,307.293 247.531,290.626 248.5,272.5C 240.514,273.099 232.514,273.432 224.5,273.5C 224.353,283.2 224.853,292.866 226,302.5C 235.358,302.534 241.192,307.034 243.5,316C 243.717,319.235 242.383,321.568 239.5,323C 235.168,325.499 230.501,326.832 225.5,327C 218.5,327.667 211.5,327.667 204.5,327C 201.797,321.82 200.964,316.32 202,310.5C 206.88,299.319 209.046,287.652 208.5,275.5C 200.778,275.76 193.111,276.427 185.5,277.5C 184.124,267.442 182.457,257.442 180.5,247.5C 173.712,245.186 167.379,242.019 161.5,238C 152.103,237.785 143.936,234.619 137,228.5C 133.274,219.428 127.274,212.095 119,206.5C 119.532,196.94 123.198,195.94 130,203.5C 129.096,200.974 128.762,198.308 129,195.5C 131.916,193.987 134.582,194.32 137,196.5C 139.254,200.007 141.254,203.673 143,207.5C 146.742,200.352 151.408,199.685 157,205.5C 158.442,209.511 160.442,213.178 163,216.5C 163.333,219.833 163.667,223.167 164,226.5C 168.12,229.81 172.62,232.477 177.5,234.5C 173.976,214.092 167.476,194.426 158,175.5C 154.694,172.194 151.36,168.86 148,165.5C 145.247,158.249 146.414,151.749 151.5,146C 150.349,144.177 149.182,142.344 148,140.5C 147.333,138.833 147.333,137.167 148,135.5C 150.428,132.982 152.095,129.982 153,126.5C 153.903,125.299 155.069,124.465 156.5,124C 161.126,124.189 164.626,122.356 167,118.5C 166.311,110.696 169.811,106.363 177.5,105.5C 178.984,100.03 182.651,97.0298 188.5,96.5C 193.096,90.9395 197.096,84.9395 200.5,78.5C 203.823,75.6752 207.49,73.6752 211.5,72.5 Z"/></g>
<g><path style="opacity:1" fill="#fddfb0" d="M 218.5,78.5 C 218.833,78.5 219.167,78.5 219.5,78.5C 220.492,78.3284 221.158,78.6618 221.5,79.5C 220.761,79.369 220.094,79.5357 219.5,80C 226.829,85.2317 226.162,87.2317 217.5,86C 216.833,86.6667 216.167,87.3333 215.5,88C 217.058,88.21 218.391,88.71 219.5,89.5C 215.241,91.0828 212.908,94.0828 212.5,98.5C 212.34,100.153 211.674,101.486 210.5,102.5C 209.5,102.5 208.5,102.5 207.5,102.5C 202.588,100.795 197.921,101.461 193.5,104.5C 191.861,105.916 191.027,107.583 191,109.5C 192.95,107.612 195.117,106.446 197.5,106C 196,107.5 194.5,109 193,110.5C 192.44,114.988 192.773,119.321 194,123.5C 192.571,126.356 190.737,126.856 188.5,125C 185.197,124.785 182.03,124.618 179,124.5C 178.517,125.448 178.351,126.448 178.5,127.5C 173.352,126.673 170.018,128.673 168.5,133.5C 168.608,131.486 167.942,129.82 166.5,128.5C 165.761,124.254 167.427,121.587 171.5,120.5C 172.167,120.5 172.833,120.5 173.5,120.5C 172.542,121.962 171.376,123.295 170,124.5C 169.333,125.167 169.333,125.833 170,126.5C 171.893,125.673 174.059,125.673 176.5,126.5C 177.249,123.582 179.083,121.915 182,121.5C 185.213,122.007 188.38,122.674 191.5,123.5C 190.66,119.649 190.66,115.649 191.5,111.5C 191.333,111.167 191.167,110.833 191,110.5C 189.667,111.833 188.333,113.167 187,114.5C 186.349,112.765 186.515,111.098 187.5,109.5C 187.03,108.537 186.363,108.537 185.5,109.5C 183.467,104.199 185.134,102.532 190.5,104.5C 191.5,104 192.5,103.5 193.5,103C 192.906,102.536 192.239,102.369 191.5,102.5C 192.11,101.609 192.443,100.609 192.5,99.5C 195.004,95.3421 198.671,92.6755 203.5,91.5C 202.009,87.6274 203.009,84.4607 206.5,82C 210.482,80.3295 214.482,79.1629 218.5,78.5 Z"/></g>
<g><path style="opacity:1" fill="#f4d8ad" d="M 245.5,82.5 C 245.762,83.9778 245.429,85.3112 244.5,86.5C 241.155,83.1471 237.155,81.1471 232.5,80.5C 237.298,77.5764 241.631,78.2431 245.5,82.5 Z"/></g>
<g><path style="opacity:1" fill="#efe4da" d="M 219.5,78.5 C 219.167,78.5 218.833,78.5 218.5,78.5C 210.6,77.6211 204.266,80.2878 199.5,86.5C 203.565,77.1298 210.231,74.4631 219.5,78.5 Z"/></g>
<g><path style="opacity:1" fill="#e7d9cd" d="M 255.5,84.5 C 260.255,82.9426 264.921,83.4426 269.5,86C 270.252,86.6708 270.586,87.5041 270.5,88.5C 266.153,85.0067 261.153,83.6734 255.5,84.5 Z"/></g>
<g><path style="opacity:1" fill="#fddfaf" d="M 264.5,101.5 C 263.29,101.068 262.29,100.401 261.5,99.5C 261.196,93.8862 258.862,92.2195 254.5,94.5C 254.262,92.5956 253.262,91.2623 251.5,90.5C 251.414,89.5041 251.748,88.6708 252.5,88C 261.515,83.6716 267.849,86.1716 271.5,95.5C 271.333,96.1667 271.167,96.8333 271,97.5C 270.089,94.367 268.256,93.367 265.5,94.5C 265.564,96.8637 265.231,99.197 264.5,101.5 Z"/></g>
<g><path style="opacity:1" fill="#3f2924" d="M 251.5,90.5 C 253.262,91.2623 254.262,92.5956 254.5,94.5C 254.539,95.7562 254.039,96.7562 253,97.5C 251.452,90.8739 248.119,89.8739 243,94.5C 242.517,93.552 242.351,92.552 242.5,91.5C 241.754,88.4448 239.754,86.7781 236.5,86.5C 234.583,86.7538 233.249,87.7538 232.5,89.5C 230.926,91.1016 230.259,93.1016 230.5,95.5C 230.5,96.8333 230.5,98.1667 230.5,99.5C 229.5,98.1667 228.5,96.8333 227.5,95.5C 224.733,91.2556 221.066,90.4223 216.5,93C 215.418,94.3297 214.751,95.8297 214.5,97.5C 213.833,97.8333 213.167,98.1667 212.5,98.5C 212.908,94.0828 215.241,91.0828 219.5,89.5C 222.675,89.5029 225.508,90.5029 228,92.5C 230.376,85.5368 234.876,83.7035 241.5,87C 242.618,88.0736 243.618,89.2402 244.5,90.5C 246.865,89.1783 249.198,89.1783 251.5,90.5 Z"/></g>
<g><path style="opacity:1" fill="#f4a748" d="M 242.5,91.5 C 242.351,92.552 242.517,93.552 243,94.5C 248.119,89.8739 251.452,90.8739 253,97.5C 254.039,96.7562 254.539,95.7562 254.5,94.5C 258.862,92.2195 261.196,93.8862 261.5,99.5C 257.8,98.242 254.134,98.242 250.5,99.5C 250.631,98.6236 250.298,97.9569 249.5,97.5C 247.742,98.1279 246.242,99.1279 245,100.5C 243.739,97.1796 242.072,96.8463 240,99.5C 239.71,97.0481 239.044,94.7148 238,92.5C 234.417,90.8769 231.917,91.8769 230.5,95.5C 230.259,93.1016 230.926,91.1016 232.5,89.5C 236.376,87.7418 239.71,88.4085 242.5,91.5 Z"/></g>
<g><path style="opacity:1" fill="#f8b04d" d="M 218.5,78.5 C 214.482,79.1629 210.482,80.3295 206.5,82C 203.009,84.4607 202.009,87.6274 203.5,91.5C 198.671,92.6755 195.004,95.3421 192.5,99.5C 192.372,97.3453 192.872,95.3453 194,93.5C 196.779,91.8731 198.613,89.5398 199.5,86.5C 204.266,80.2878 210.6,77.6211 218.5,78.5 Z"/></g>
<g><path style="opacity:1" fill="#f6d8aa" d="M 227.5,95.5 C 227.798,98.3356 227.131,98.8356 225.5,97C 222.574,96.7822 219.74,96.2822 217,95.5C 216.292,96.3805 215.458,97.0472 214.5,97.5C 214.751,95.8297 215.418,94.3297 216.5,93C 221.066,90.4223 224.733,91.2556 227.5,95.5 Z"/></g>
<g><path style="opacity:1" fill="#fcdfb2" d="M 250.5,99.5 C 246.42,102.379 244.42,106.379 244.5,111.5C 243.167,113.5 241.5,115.167 239.5,116.5C 239.69,112.21 238.69,108.21 236.5,104.5C 235.06,103.048 233.394,102.048 231.5,101.5C 231.672,100.508 231.338,99.8417 230.5,99.5C 230.5,98.1667 230.5,96.8333 230.5,95.5C 231.917,91.8769 234.417,90.8769 238,92.5C 239.044,94.7148 239.71,97.0481 240,99.5C 242.072,96.8463 243.739,97.1796 245,100.5C 246.242,99.1279 247.742,98.1279 249.5,97.5C 250.298,97.9569 250.631,98.6236 250.5,99.5 Z"/></g>
<g><path style="opacity:1" fill="#f4a84a" d="M 227.5,95.5 C 228.5,96.8333 229.5,98.1667 230.5,99.5C 231.338,99.8417 231.672,100.508 231.5,101.5C 230.417,101.539 229.417,101.873 228.5,102.5C 223.309,97.0386 218.309,97.2053 213.5,103C 212.251,103.74 211.251,103.573 210.5,102.5C 211.674,101.486 212.34,100.153 212.5,98.5C 213.167,98.1667 213.833,97.8333 214.5,97.5C 215.458,97.0472 216.292,96.3805 217,95.5C 219.74,96.2822 222.574,96.7822 225.5,97C 227.131,98.8356 227.798,98.3356 227.5,95.5 Z"/></g>
<g><path style="opacity:1" fill="#fbddad" d="M 280.5,99.5 C 280.5,98.8333 280.833,98.5 281.5,98.5C 287.202,98.2014 289.868,100.868 289.5,106.5C 289.414,107.496 289.748,108.329 290.5,109C 294.251,109.582 295.918,111.749 295.5,115.5C 294.185,114.524 292.852,113.524 291.5,112.5C 291.089,113.262 290.923,114.262 291,115.5C 289.604,113.473 287.938,113.14 286,114.5C 285.667,110.833 285.333,107.167 285,103.5C 284.208,101.356 282.708,100.023 280.5,99.5 Z"/></g>
<g><path style="opacity:1" fill="#efaa50" d="M 289.5,106.5 C 289.868,100.868 287.202,98.2014 281.5,98.5C 283.053,95.746 285.386,94.9126 288.5,96C 292.158,99.1376 292.491,102.638 289.5,106.5 Z"/></g>
<g><path style="opacity:1" fill="#48312a" d="M 261.5,99.5 C 262.29,100.401 263.29,101.068 264.5,101.5C 264.987,102.473 265.487,103.473 266,104.5C 272.26,100.154 277.926,100.821 283,106.5C 284.728,109.759 284.894,113.092 283.5,116.5C 293.343,119.7 295.009,125.367 288.5,133.5C 288.167,133.5 287.833,133.5 287.5,133.5C 286.761,133.631 286.094,133.464 285.5,133C 289.725,130.337 291.225,126.504 290,121.5C 287.678,118.111 285.178,117.777 282.5,120.5C 281.209,120.263 280.209,120.596 279.5,121.5C 278.5,121.5 277.5,121.5 276.5,121.5C 277.167,120.833 277.833,120.167 278.5,119.5C 280.411,119.426 281.578,118.426 282,116.5C 283.833,106.333 279.667,102.167 269.5,104C 268.019,104.98 266.685,106.147 265.5,107.5C 264.85,105.816 263.85,104.483 262.5,103.5C 258.411,98.6285 253.911,98.2952 249,102.5C 248.209,103.745 247.709,105.078 247.5,106.5C 247.337,108.857 247.503,111.19 248,113.5C 248.383,114.056 248.883,114.389 249.5,114.5C 249.158,115.338 248.492,115.672 247.5,115.5C 246.488,114.128 245.488,112.795 244.5,111.5C 244.42,106.379 246.42,102.379 250.5,99.5C 254.134,98.242 257.8,98.242 261.5,99.5 Z"/></g>
<g><path style="opacity:1" fill="#eee8e2" d="M 262.5,103.5 C 256.818,101.497 251.818,102.497 247.5,106.5C 247.709,105.078 248.209,103.745 249,102.5C 253.911,98.2952 258.411,98.6285 262.5,103.5 Z"/></g>
<g><path style="opacity:1" fill="#f9af4f" d="M 262.5,103.5 C 263.85,104.483 264.85,105.816 265.5,107.5C 266.685,106.147 268.019,104.98 269.5,104C 279.667,102.167 283.833,106.333 282,116.5C 281.578,118.426 280.411,119.426 278.5,119.5C 277.5,119.5 276.5,119.5 275.5,119.5C 279.417,116.935 280.917,113.268 280,108.5C 278.475,105.913 276.308,105.08 273.5,106C 274.579,106.956 275.745,107.789 277,108.5C 277.667,109.167 277.667,109.833 277,110.5C 273.321,107.018 269.488,106.685 265.5,109.5C 263.692,108.683 262.192,109.35 261,111.5C 258.77,104.923 255.104,103.923 250,108.5C 249.505,110.473 249.338,112.473 249.5,114.5C 248.883,114.389 248.383,114.056 248,113.5C 247.503,111.19 247.337,108.857 247.5,106.5C 251.818,102.497 256.818,101.497 262.5,103.5 Z"/></g>
<g><path style="opacity:1" fill="#fee3b8" d="M 265.5,109.5 C 264.343,111.138 263.176,112.804 262,114.5C 260.176,113.598 258.676,111.765 257.5,109C 255.833,108.333 254.167,108.333 252.5,109C 252.12,111.326 251.12,113.159 249.5,114.5C 249.338,112.473 249.505,110.473 250,108.5C 255.104,103.923 258.77,104.923 261,111.5C 262.192,109.35 263.692,108.683 265.5,109.5 Z"/></g>
<g><path style="opacity:1" fill="#fee3b9" d="M 275.5,119.5 C 272.225,119.767 271.392,118.767 273,116.5C 273.4,111.404 270.9,109.071 265.5,109.5C 269.488,106.685 273.321,107.018 277,110.5C 277.667,109.833 277.667,109.167 277,108.5C 275.745,107.789 274.579,106.956 273.5,106C 276.308,105.08 278.475,105.913 280,108.5C 280.917,113.268 279.417,116.935 275.5,119.5 Z"/></g>
<g><path style="opacity:1" fill="#fff9f1" d="M 231.5,116.5 C 229.018,118.456 226.352,118.789 223.5,117.5C 222.513,120.768 222.18,124.102 222.5,127.5C 220.914,125.919 219.914,123.919 219.5,121.5C 216.794,118.806 214.961,119.14 214,122.5C 213.059,120.939 211.892,119.605 210.5,118.5C 207.627,118.275 204.627,118.609 201.5,119.5C 202.256,117.387 202.423,115.387 202,113.5C 203.848,110.959 206.348,109.959 209.5,110.5C 210.815,111.476 212.148,112.476 213.5,113.5C 214.024,107.796 217.024,105.296 222.5,106C 224.049,107.214 225.215,108.714 226,110.5C 226.333,109.833 226.667,109.167 227,108.5C 226.766,115.116 228.1,115.783 231,110.5C 232.707,112.483 232.874,114.483 231.5,116.5 Z"/></g>
<g><path style="opacity:1" fill="#fefbf7" d="M 265.5,109.5 C 270.9,109.071 273.4,111.404 273,116.5C 271.392,118.767 272.225,119.767 275.5,119.5C 276.5,119.5 277.5,119.5 278.5,119.5C 277.833,120.167 277.167,120.833 276.5,121.5C 275.033,121.106 273.533,120.773 272,120.5C 269.718,121.29 267.552,122.29 265.5,123.5C 261.332,120.88 257.165,120.88 253,123.5C 252.481,121.511 253.314,120.511 255.5,120.5C 258.127,119.895 260.793,119.395 263.5,119C 262.377,117.956 261.044,117.29 259.5,117C 256.574,116.782 253.74,116.282 251,115.5C 249.007,116.914 246.84,117.914 244.5,118.5C 245.167,117.167 246.167,116.167 247.5,115.5C 248.492,115.672 249.158,115.338 249.5,114.5C 251.12,113.159 252.12,111.326 252.5,109C 254.167,108.333 255.833,108.333 257.5,109C 258.676,111.765 260.176,113.598 262,114.5C 263.176,112.804 264.343,111.138 265.5,109.5 Z"/></g>
<g><path style="opacity:1" fill="#fee0b1" d="M 185.5,109.5 C 183.95,112.611 181.617,113.444 178.5,112C 175.892,114.398 174.225,117.231 173.5,120.5C 172.994,112.008 176.994,108.341 185.5,109.5 Z"/></g>
<g><path style="opacity:1" fill="#fffdfa" d="M 173.5,120.5 C 174.225,117.231 175.892,114.398 178.5,112C 181.617,113.444 183.95,112.611 185.5,109.5C 186.363,108.537 187.03,108.537 187.5,109.5C 186.515,111.098 186.349,112.765 187,114.5C 188.333,113.167 189.667,111.833 191,110.5C 191.167,110.833 191.333,111.167 191.5,111.5C 190.66,115.649 190.66,119.649 191.5,123.5C 188.38,122.674 185.213,122.007 182,121.5C 179.083,121.915 177.249,123.582 176.5,126.5C 174.059,125.673 171.893,125.673 170,126.5C 169.333,125.833 169.333,125.167 170,124.5C 171.376,123.295 172.542,121.962 173.5,120.5 Z"/></g>
<g><path style="opacity:1" fill="#eda346" d="M 191.5,102.5 C 192.239,102.369 192.906,102.536 193.5,103C 192.5,103.5 191.5,104 190.5,104.5C 185.134,102.532 183.467,104.199 185.5,109.5C 176.994,108.341 172.994,112.008 173.5,120.5C 172.833,120.5 172.167,120.5 171.5,120.5C 169.104,112.554 172.104,108.554 180.5,108.5C 181.194,100.987 184.861,98.9868 191.5,102.5 Z"/></g>
<g><path style="opacity:1" fill="#fbe0b5" d="M 209.5,110.5 C 206.348,109.959 203.848,110.959 202,113.5C 202.423,115.387 202.256,117.387 201.5,119.5C 204.627,118.609 207.627,118.275 210.5,118.5C 211.892,119.605 213.059,120.939 214,122.5C 214.961,119.14 216.794,118.806 219.5,121.5C 219.914,123.919 220.914,125.919 222.5,127.5C 222.585,128.995 221.919,129.995 220.5,130.5C 219.645,123.751 216.312,121.751 210.5,124.5C 207.129,123.284 203.795,122.284 200.5,121.5C 200.335,118.482 200.502,115.482 201,112.5C 203.414,109.52 206.248,108.853 209.5,110.5 Z"/></g>
<g><path style="opacity:1" fill="#f5ab4d" d="M 224.5,121.5 C 226.167,122.167 227.833,122.833 229.5,123.5C 227.964,128.055 225.298,131.888 221.5,135C 223.519,135.45 225.352,136.283 227,137.5C 227.619,134.968 228.619,132.635 230,130.5C 230.236,132.119 231.069,133.119 232.5,133.5C 230.653,136.2 229.653,139.2 229.5,142.5C 230.14,145.882 230.64,149.216 231,152.5C 228.561,154.498 226.061,154.831 223.5,153.5C 225.827,153.753 227.827,153.086 229.5,151.5C 227.296,150.794 225.296,149.794 223.5,148.5C 223.5,146.833 223.5,145.167 223.5,143.5C 222.209,143.263 221.209,143.596 220.5,144.5C 219.833,145.167 219.167,145.833 218.5,146.5C 218.629,142.515 220.463,141.182 224,142.5C 224.333,144.167 224.667,145.833 225,147.5C 227.628,141.032 225.461,138.699 218.5,140.5C 214.892,137.075 211.059,136.741 207,139.5C 205.182,142.416 205.016,145.416 206.5,148.5C 205.123,154.428 207.289,158.095 213,159.5C 214.876,159.475 216.376,158.809 217.5,157.5C 219.25,156.341 220.25,154.674 220.5,152.5C 220.833,152.5 221.167,152.5 221.5,152.5C 221.025,159.307 217.358,162.64 210.5,162.5C 207.528,160.359 205.028,157.692 203,154.5C 201.951,159.051 199.118,161.051 194.5,160.5C 194.598,162.553 193.931,164.22 192.5,165.5C 181.64,164.792 178.807,159.458 184,149.5C 186.264,148.149 188.098,146.483 189.5,144.5C 190.267,145.172 190.934,146.005 191.5,147C 184.833,148.619 182.667,152.786 185,159.5C 187.128,162.458 189.794,163.124 193,161.5C 193.483,160.552 193.649,159.552 193.5,158.5C 194.167,158.5 194.833,158.5 195.5,158.5C 197.153,159.799 198.653,159.466 200,157.5C 200.333,153.5 200.667,149.5 201,145.5C 201.653,142.861 202.82,140.527 204.5,138.5C 205.391,137.89 206.391,137.557 207.5,137.5C 208.458,137.047 209.292,136.381 210,135.5C 210.497,133.19 210.663,130.857 210.5,128.5C 211.665,129.496 212.332,130.829 212.5,132.5C 211.494,137.561 212.161,137.561 214.5,132.5C 213.683,129.533 212.35,126.866 210.5,124.5C 216.312,121.751 219.645,123.751 220.5,130.5C 221.919,129.995 222.585,128.995 222.5,127.5C 224.074,125.898 224.741,123.898 224.5,121.5 Z"/></g>
<g><path style="opacity:1" fill="#fee1b3" d="M 231.5,116.5 C 231.631,117.376 231.298,118.043 230.5,118.5C 227.725,118.959 225.725,119.626 224.5,120.5C 224.5,120.833 224.5,121.167 224.5,121.5C 224.741,123.898 224.074,125.898 222.5,127.5C 222.18,124.102 222.513,120.768 223.5,117.5C 226.352,118.789 229.018,118.456 231.5,116.5 Z"/></g>
<g><path style="opacity:1" fill="#fee0b1" d="M 238.5,129.5 C 235.663,129.684 233.663,131.018 232.5,133.5C 231.069,133.119 230.236,132.119 230,130.5C 228.619,132.635 227.619,134.968 227,137.5C 225.352,136.283 223.519,135.45 221.5,135C 225.298,131.888 227.964,128.055 229.5,123.5C 229.833,123.5 230.167,123.5 230.5,123.5C 231.097,124.139 231.93,124.472 233,124.5C 235.545,123.751 238.045,123.251 240.5,123C 238.771,124.789 238.104,126.956 238.5,129.5 Z"/></g>
<g><path style="opacity:1" fill="#ef9d43" d="M 207.5,125.5 C 201.174,123.841 198.174,126.174 198.5,132.5C 190.5,131.833 186.833,135.5 187.5,143.5C 184.592,139.76 184.925,136.26 188.5,133C 190.5,132.167 192.5,131.333 194.5,130.5C 197.35,124.781 201.683,123.114 207.5,125.5 Z"/></g>
<g><path style="opacity:1" fill="#f4f2f0" d="M 166.5,128.5 C 167.942,129.82 168.608,131.486 168.5,133.5C 168.158,134.338 167.492,134.672 166.5,134.5C 165.64,132.386 163.973,131.22 161.5,131C 162.167,130.667 162.833,130.333 163.5,130C 160.259,129.207 157.259,129.707 154.5,131.5C 154.859,129.629 155.859,128.129 157.5,127C 160.729,126.414 163.729,126.914 166.5,128.5 Z"/></g>
<g><path style="opacity:1" fill="#fffcf9" d="M 207.5,137.5 C 206.391,137.557 205.391,137.89 204.5,138.5C 201.951,136.438 202.284,134.605 205.5,133C 202.833,132.333 202.833,131.667 205.5,131C 203.699,130.683 203.366,130.016 204.5,129C 206.112,128.28 207.612,128.446 209,129.5C 209.712,132.438 209.212,135.104 207.5,137.5 Z"/></g>
<g><path style="opacity:1" fill="#fee2b6" d="M 166.5,134.5 C 162.541,132.792 159.041,133.458 156,136.5C 155.049,136.116 154.216,135.783 153.5,135.5C 154.234,134.292 154.567,132.959 154.5,131.5C 157.259,129.707 160.259,129.207 163.5,130C 162.833,130.333 162.167,130.667 161.5,131C 163.973,131.22 165.64,132.386 166.5,134.5 Z"/></g>
<g><path style="opacity:1" fill="#df9f4a" d="M 238.5,129.5 C 236.795,131.192 234.795,132.525 232.5,133.5C 233.663,131.018 235.663,129.684 238.5,129.5 Z"/></g>
<g><path style="opacity:1" fill="#fee2b5" d="M 259.5,139.5 C 260.508,134.333 258.675,132.666 254,134.5C 253.308,137.936 252.308,141.27 251,144.5C 250.51,143.207 250.343,141.873 250.5,140.5C 251.314,138.369 251.814,136.036 252,133.5C 254.706,130.022 257.706,129.689 261,132.5C 261.826,135.212 261.326,137.545 259.5,139.5 Z"/></g>
<g><path style="opacity:1" fill="#fbb950" d="M 207.5,125.5 C 209.5,125.5 210.5,126.5 210.5,128.5C 204.091,125.044 200.591,127.044 200,134.5C 192.689,133.602 189.189,136.936 189.5,144.5C 188.833,144.167 188.167,143.833 187.5,143.5C 186.833,135.5 190.5,131.833 198.5,132.5C 198.174,126.174 201.174,123.841 207.5,125.5 Z"/></g>
<g><path style="opacity:1" fill="#fdfcfa" d="M 259.5,139.5 C 259.5,139.833 259.5,140.167 259.5,140.5C 258.152,141.527 257.652,142.86 258,144.5C 262.051,144.81 265.384,143.143 268,139.5C 267.236,143.007 265.402,146.007 262.5,148.5C 260.847,148.66 259.514,149.326 258.5,150.5C 256.94,150.481 255.44,150.148 254,149.5C 248.895,154.634 243.062,155.634 236.5,152.5C 235.048,151.06 234.048,149.394 233.5,147.5C 234.296,137.932 239.296,134.599 248.5,137.5C 249.401,138.29 250.068,139.29 250.5,140.5C 250.343,141.873 250.51,143.207 251,144.5C 252.308,141.27 253.308,137.936 254,134.5C 258.675,132.666 260.508,134.333 259.5,139.5 Z"/></g>
<g><path style="opacity:1" fill="#fddfaf" d="M 269.5,141.5 C 269.737,142.791 269.404,143.791 268.5,144.5C 266.754,146.252 264.754,147.585 262.5,148.5C 265.402,146.007 267.236,143.007 268,139.5C 265.384,143.143 262.051,144.81 258,144.5C 257.652,142.86 258.152,141.527 259.5,140.5C 261.049,140.736 262.549,140.736 264,140.5C 266,138.5 268,136.5 270,134.5C 270.703,136.929 270.537,139.262 269.5,141.5 Z"/></g>
<g><path style="opacity:1" fill="#fce0b3" d="M 248.5,137.5 C 239.296,134.599 234.296,137.932 233.5,147.5C 232.566,146.432 232.232,145.099 232.5,143.5C 233.055,139.44 235.055,136.273 238.5,134C 242.843,132.757 246.177,133.924 248.5,137.5 Z"/></g>
<g><path style="opacity:1" fill="#f5ae4d" d="M 207.5,102.5 C 195.754,105.321 192.754,111.988 198.5,122.5C 196.31,124.856 194.31,127.356 192.5,130C 189.359,128.786 186.025,128.119 182.5,128C 181.833,128.667 181.167,129.333 180.5,130C 174.324,129.158 170.491,131.658 169,137.5C 158.634,135.539 154.634,139.873 157,150.5C 158.489,152.332 160.322,153.165 162.5,153C 157.894,149.188 157.227,144.688 160.5,139.5C 164.262,137.91 167.762,138.243 171,140.5C 170.648,134.009 173.481,131.342 179.5,132.5C 181.578,130.014 184.245,129.014 187.5,129.5C 185.787,132.435 184.454,135.602 183.5,139C 183.493,140.812 184.16,142.312 185.5,143.5C 182.097,145.9 179.43,148.9 177.5,152.5C 177.284,156.059 177.618,159.559 178.5,163C 177.324,168.588 173.99,170.588 168.5,169C 167.057,167.933 165.724,166.766 164.5,165.5C 162.747,167.261 160.747,168.594 158.5,169.5C 148.544,164.772 147.044,158.105 154,149.5C 154.818,146.773 154.652,144.106 153.5,141.5C 149.585,139.198 149.585,137.198 153.5,135.5C 154.216,135.783 155.049,136.116 156,136.5C 159.041,133.458 162.541,132.792 166.5,134.5C 167.492,134.672 168.158,134.338 168.5,133.5C 170.018,128.673 173.352,126.673 178.5,127.5C 178.351,126.448 178.517,125.448 179,124.5C 182.03,124.618 185.197,124.785 188.5,125C 190.737,126.856 192.571,126.356 194,123.5C 192.773,119.321 192.44,114.988 193,110.5C 194.5,109 196,107.5 197.5,106C 195.117,106.446 192.95,107.612 191,109.5C 191.027,107.583 191.861,105.916 193.5,104.5C 197.921,101.461 202.588,100.795 207.5,102.5 Z"/></g>
<g><path style="opacity:1" fill="#fffdfb" d="M 178.5,146.5 C 178.167,146.5 177.833,146.5 177.5,146.5C 174.622,147.212 172.955,149.046 172.5,152C 174.048,155.665 174.715,159.499 174.5,163.5C 170.537,162.87 168.204,160.537 167.5,156.5C 167.849,153.537 166.849,151.204 164.5,149.5C 165.43,147.895 165.43,146.395 164.5,145C 165.381,144.292 166.047,143.458 166.5,142.5C 168.167,142.5 169.833,142.5 171.5,142.5C 171.56,143.043 171.893,143.376 172.5,143.5C 172.698,140.215 174.365,138.548 177.5,138.5C 177.279,141.279 177.612,143.946 178.5,146.5 Z"/></g>
<g><path style="opacity:1" fill="#482f24" d="M 218.5,146.5 C 217.007,150.412 216.34,150.079 216.5,145.5C 217.422,141.541 215.922,139.208 212,138.5C 207.814,140.045 206.648,142.711 208.5,146.5C 208.5,147.167 208.5,147.833 208.5,148.5C 207.833,148.5 207.167,148.5 206.5,148.5C 205.016,145.416 205.182,142.416 207,139.5C 211.059,136.741 214.892,137.075 218.5,140.5C 225.461,138.699 227.628,141.032 225,147.5C 224.667,145.833 224.333,144.167 224,142.5C 220.463,141.182 218.629,142.515 218.5,146.5 Z"/></g>
<g><path style="opacity:1" fill="#f6ad49" d="M 216.5,145.5 C 213.313,142.638 210.646,142.971 208.5,146.5C 206.648,142.711 207.814,140.045 212,138.5C 215.922,139.208 217.422,141.541 216.5,145.5 Z"/></g>
<g><path style="opacity:1" fill="#fee1b4" d="M 216.5,145.5 C 216.34,150.079 217.007,150.412 218.5,146.5C 219.167,145.833 219.833,145.167 220.5,144.5C 219.928,147.945 218.428,150.945 216,153.5C 215.976,147.926 213.476,145.593 208.5,146.5C 210.646,142.971 213.313,142.638 216.5,145.5 Z"/></g>
<g><path style="opacity:1" fill="#fefcf9" d="M 223.5,148.5 C 222.5,149.833 221.5,151.167 220.5,152.5C 220.25,154.674 219.25,156.341 217.5,157.5C 209.948,158.618 206.948,155.618 208.5,148.5C 208.5,147.833 208.5,147.167 208.5,146.5C 213.476,145.593 215.976,147.926 216,153.5C 218.428,150.945 219.928,147.945 220.5,144.5C 221.209,143.596 222.209,143.263 223.5,143.5C 223.5,145.167 223.5,146.833 223.5,148.5 Z"/></g>
<g><path style="opacity:1" fill="#f5ab4c" d="M 221.5,79.5 C 223.481,81.1436 225.481,82.8103 227.5,84.5C 229.186,83.1431 230.852,81.8098 232.5,80.5C 237.155,81.1471 241.155,83.1471 244.5,86.5C 245.429,85.3112 245.762,83.9778 245.5,82.5C 246.991,84.1268 248.491,85.7935 250,87.5C 251.731,86.259 253.564,85.259 255.5,84.5C 261.153,83.6734 266.153,85.0067 270.5,88.5C 273.389,91.4909 274.722,95.1576 274.5,99.5C 276.5,99.5 278.5,99.5 280.5,99.5C 282.708,100.023 284.208,101.356 285,103.5C 285.333,107.167 285.667,110.833 286,114.5C 287.938,113.14 289.604,113.473 291,115.5C 290.923,114.262 291.089,113.262 291.5,112.5C 292.852,113.524 294.185,114.524 295.5,115.5C 295.5,117.833 295.5,120.167 295.5,122.5C 308.61,123.23 312.276,129.397 306.5,141C 307.973,144.905 306.64,147.571 302.5,149C 300.19,149.497 297.857,149.663 295.5,149.5C 292.861,147.691 290.694,145.358 289,142.5C 282.068,148.064 275.568,147.731 269.5,141.5C 270.537,139.262 270.703,136.929 270,134.5C 268,136.5 266,138.5 264,140.5C 262.549,140.736 261.049,140.736 259.5,140.5C 259.5,140.167 259.5,139.833 259.5,139.5C 261.326,137.545 261.826,135.212 261,132.5C 257.706,129.689 254.706,130.022 252,133.5C 251.814,136.036 251.314,138.369 250.5,140.5C 250.068,139.29 249.401,138.29 248.5,137.5C 246.177,133.924 242.843,132.757 238.5,134C 235.055,136.273 233.055,139.44 232.5,143.5C 231.378,141.712 231.211,139.712 232,137.5C 236.786,131.146 242.786,129.813 250,133.5C 250.652,126.187 254.486,123.687 261.5,126C 263.317,127.8 264.484,129.966 265,132.5C 267.153,130.556 269.653,130.056 272.5,131C 274.036,134.24 273.703,137.24 271.5,140C 272.996,140.507 274.163,140.007 275,138.5C 276.689,131.024 273.856,128.024 266.5,129.5C 263.183,123.673 258.516,122.173 252.5,125C 250.393,126.264 249.393,128.097 249.5,130.5C 245.881,129.756 242.215,129.423 238.5,129.5C 238.104,126.956 238.771,124.789 240.5,123C 238.045,123.251 235.545,123.751 233,124.5C 231.93,124.472 231.097,124.139 230.5,123.5C 234.856,122.831 237.856,120.498 239.5,116.5C 241.5,115.167 243.167,113.5 244.5,111.5C 245.488,112.795 246.488,114.128 247.5,115.5C 246.167,116.167 245.167,117.167 244.5,118.5C 241.861,119.706 241.028,121.706 242,124.5C 245.277,118.891 250.11,117.058 256.5,119C 255.944,119.383 255.611,119.883 255.5,120.5C 253.314,120.511 252.481,121.511 253,123.5C 257.165,120.88 261.332,120.88 265.5,123.5C 266.238,125.76 267.238,125.927 268.5,124C 270.5,123.333 272.5,123.333 274.5,124C 275.287,127.219 276.12,130.719 277,134.5C 279.54,135.876 281.54,135.21 283,132.5C 286.447,128.214 286.281,124.214 282.5,120.5C 285.178,117.777 287.678,118.111 290,121.5C 291.225,126.504 289.725,130.337 285.5,133C 286.094,133.464 286.761,133.631 287.5,133.5C 284.858,136.317 281.525,137.817 277.5,138C 273.998,140.011 273.998,141.344 277.5,142C 276.833,142.333 276.167,142.667 275.5,143C 277.913,143.484 280.246,143.15 282.5,142C 285.602,139.905 288.602,138.405 291.5,137.5C 292.178,142.847 295.178,145.181 300.5,144.5C 303.134,142.46 303.134,140.293 300.5,138C 301.352,135.638 302.852,133.805 305,132.5C 305.78,130.613 305.613,128.946 304.5,127.5C 304.167,126.5 303.5,125.833 302.5,125.5C 297.112,122.159 294.112,123.826 293.5,130.5C 292.017,132.094 290.517,133.76 289,135.5C 288.536,134.906 288.369,134.239 288.5,133.5C 295.009,125.367 293.343,119.7 283.5,116.5C 284.894,113.092 284.728,109.759 283,106.5C 277.926,100.821 272.26,100.154 266,104.5C 265.487,103.473 264.987,102.473 264.5,101.5C 265.231,99.197 265.564,96.8637 265.5,94.5C 268.256,93.367 270.089,94.367 271,97.5C 271.167,96.8333 271.333,96.1667 271.5,95.5C 267.849,86.1716 261.515,83.6716 252.5,88C 251.748,88.6708 251.414,89.5041 251.5,90.5C 249.198,89.1783 246.865,89.1783 244.5,90.5C 243.618,89.2402 242.618,88.0736 241.5,87C 234.876,83.7035 230.376,85.5368 228,92.5C 225.508,90.5029 222.675,89.5029 219.5,89.5C 218.391,88.71 217.058,88.21 215.5,88C 216.167,87.3333 216.833,86.6667 217.5,86C 226.162,87.2317 226.829,85.2317 219.5,80C 220.094,79.5357 220.761,79.369 221.5,79.5 Z"/></g>
<g><path style="opacity:1" fill="#fee4bb" d="M 304.5,127.5 C 305.613,128.946 305.78,130.613 305,132.5C 302.852,133.805 301.352,135.638 300.5,138C 303.134,140.293 303.134,142.46 300.5,144.5C 301.026,141.192 299.693,139.026 296.5,138C 297.448,137.517 298.448,137.351 299.5,137.5C 300.333,135.248 300.333,133.081 299.5,131C 300.899,130.405 302.232,130.572 303.5,131.5C 304.429,130.311 304.762,128.978 304.5,127.5 Z"/></g>
<g><path style="opacity:1" fill="#fff8ef" d="M 302.5,125.5 C 303.5,125.833 304.167,126.5 304.5,127.5C 304.762,128.978 304.429,130.311 303.5,131.5C 302.232,130.572 300.899,130.405 299.5,131C 300.333,133.081 300.333,135.248 299.5,137.5C 298.448,137.351 297.448,137.517 296.5,138C 299.693,139.026 301.026,141.192 300.5,144.5C 295.178,145.181 292.178,142.847 291.5,137.5C 288.602,138.405 285.602,139.905 282.5,142C 280.246,143.15 277.913,143.484 275.5,143C 276.167,142.667 276.833,142.333 277.5,142C 273.998,141.344 273.998,140.011 277.5,138C 281.525,137.817 284.858,136.317 287.5,133.5C 287.833,133.5 288.167,133.5 288.5,133.5C 288.369,134.239 288.536,134.906 289,135.5C 290.517,133.76 292.017,132.094 293.5,130.5C 296.289,128.359 299.289,126.693 302.5,125.5 Z"/></g>
<g><path style="opacity:1" fill="#fedfb2" d="M 302.5,125.5 C 299.289,126.693 296.289,128.359 293.5,130.5C 294.112,123.826 297.112,122.159 302.5,125.5 Z"/></g>
<g><path style="opacity:1" fill="#fde2b6" d="M 276.5,121.5 C 277.496,124.821 278.496,128.155 279.5,131.5C 283.332,128.268 283.332,124.935 279.5,121.5C 280.209,120.596 281.209,120.263 282.5,120.5C 286.281,124.214 286.447,128.214 283,132.5C 281.54,135.21 279.54,135.876 277,134.5C 276.12,130.719 275.287,127.219 274.5,124C 272.5,123.333 270.5,123.333 268.5,124C 267.238,125.927 266.238,125.76 265.5,123.5C 267.552,122.29 269.718,121.29 272,120.5C 273.533,120.773 275.033,121.106 276.5,121.5 Z"/></g>
<g><path style="opacity:1" fill="#fffbf4" d="M 276.5,121.5 C 277.5,121.5 278.5,121.5 279.5,121.5C 283.332,124.935 283.332,128.268 279.5,131.5C 278.496,128.155 277.496,124.821 276.5,121.5 Z"/></g>
<g><path style="opacity:1" fill="#fee1b3" d="M 255.5,120.5 C 255.611,119.883 255.944,119.383 256.5,119C 250.11,117.058 245.277,118.891 242,124.5C 241.028,121.706 241.861,119.706 244.5,118.5C 246.84,117.914 249.007,116.914 251,115.5C 253.74,116.282 256.574,116.782 259.5,117C 261.044,117.29 262.377,117.956 263.5,119C 260.793,119.395 258.127,119.895 255.5,120.5 Z"/></g>
<g><path style="opacity:1" fill="#dfc7b1" d="M 242.5,91.5 C 239.71,88.4085 236.376,87.7418 232.5,89.5C 233.249,87.7538 234.583,86.7538 236.5,86.5C 239.754,86.7781 241.754,88.4448 242.5,91.5 Z"/></g>
<g><path style="opacity:1" fill="#ed9b42" d="M 187.5,143.5 C 188.167,143.833 188.833,144.167 189.5,144.5C 188.098,146.483 186.264,148.149 184,149.5C 178.807,159.458 181.64,164.792 192.5,165.5C 190.022,168.699 187.022,169.199 183.5,167C 179.156,163.124 177.489,158.291 178.5,152.5C 181.215,149.118 184.215,146.118 187.5,143.5 Z"/></g>
<g><path style="opacity:1" fill="#fcb94d" d="M 283.5,148.5 C 286.721,184.155 289.721,219.822 292.5,255.5C 289.72,258.064 286.72,260.397 283.5,262.5C 285.626,223.394 281.293,185.061 270.5,147.5C 270.56,146.957 270.893,146.624 271.5,146.5C 275.217,149.342 279.217,150.009 283.5,148.5 Z"/></g>
<g><path style="opacity:1" fill="#fefaf7" d="M 289.5,148.5 C 295.988,182.84 298.654,217.507 297.5,252.5C 295.999,253.752 294.332,254.752 292.5,255.5C 289.721,219.822 286.721,184.155 283.5,148.5C 285.258,148.123 286.925,147.456 288.5,146.5C 289.298,146.957 289.631,147.624 289.5,148.5 Z"/></g>
<g><path style="opacity:1" fill="#432c26" d="M 231.5,101.5 C 233.394,102.048 235.06,103.048 236.5,104.5C 238.69,108.21 239.69,112.21 239.5,116.5C 237.856,120.498 234.856,122.831 230.5,123.5C 230.167,123.5 229.833,123.5 229.5,123.5C 227.833,122.833 226.167,122.167 224.5,121.5C 224.5,121.167 224.5,120.833 224.5,120.5C 228.924,122.282 232.924,121.615 236.5,118.5C 238.225,113.056 237.225,108.222 233.5,104C 231.044,104.064 228.711,103.898 226.5,103.5C 224.142,100.764 221.142,99.9302 217.5,101C 216.619,101.708 215.953,102.542 215.5,103.5C 214.533,104.806 213.199,105.473 211.5,105.5C 203.999,103.117 199.332,105.784 197.5,113.5C 197.018,116.831 198.018,119.497 200.5,121.5C 203.795,122.284 207.129,123.284 210.5,124.5C 212.35,126.866 213.683,129.533 214.5,132.5C 212.161,137.561 211.494,137.561 212.5,132.5C 212.332,130.829 211.665,129.496 210.5,128.5C 210.5,126.5 209.5,125.5 207.5,125.5C 201.683,123.114 197.35,124.781 194.5,130.5C 192.5,131.333 190.5,132.167 188.5,133C 184.925,136.26 184.592,139.76 187.5,143.5C 184.215,146.118 181.215,149.118 178.5,152.5C 178.167,152.5 177.833,152.5 177.5,152.5C 179.43,148.9 182.097,145.9 185.5,143.5C 184.16,142.312 183.493,140.812 183.5,139C 184.454,135.602 185.787,132.435 187.5,129.5C 184.245,129.014 181.578,130.014 179.5,132.5C 173.481,131.342 170.648,134.009 171,140.5C 167.762,138.243 164.262,137.91 160.5,139.5C 157.227,144.688 157.894,149.188 162.5,153C 160.322,153.165 158.489,152.332 157,150.5C 154.634,139.873 158.634,135.539 169,137.5C 170.491,131.658 174.324,129.158 180.5,130C 181.167,129.333 181.833,128.667 182.5,128C 186.025,128.119 189.359,128.786 192.5,130C 194.31,127.356 196.31,124.856 198.5,122.5C 192.754,111.988 195.754,105.321 207.5,102.5C 208.5,102.5 209.5,102.5 210.5,102.5C 211.251,103.573 212.251,103.74 213.5,103C 218.309,97.2053 223.309,97.0386 228.5,102.5C 229.417,101.873 230.417,101.539 231.5,101.5 Z"/></g>
<g><path style="opacity:1" fill="#fedca5" d="M 178.5,146.5 C 177.612,143.946 177.279,141.279 177.5,138.5C 174.365,138.548 172.698,140.215 172.5,143.5C 171.893,143.376 171.56,143.043 171.5,142.5C 172.306,141.003 172.972,139.336 173.5,137.5C 176.129,135.95 177.963,136.616 179,139.5C 179.333,138.833 179.667,138.167 180,137.5C 180.667,140.167 180.667,142.833 180,145.5C 179.617,146.056 179.117,146.389 178.5,146.5 Z"/></g>
<g><path style="opacity:1" fill="#ede2d9" d="M 211.5,105.5 C 204.952,105.101 200.286,107.768 197.5,113.5C 199.332,105.784 203.999,103.117 211.5,105.5 Z"/></g>
<g><path style="opacity:1" fill="#f6ab4e" d="M 226.5,103.5 C 228.711,103.898 231.044,104.064 233.5,104C 237.225,108.222 238.225,113.056 236.5,118.5C 232.924,121.615 228.924,122.282 224.5,120.5C 225.725,119.626 227.725,118.959 230.5,118.5C 231.298,118.043 231.631,117.376 231.5,116.5C 232.874,114.483 232.707,112.483 231,110.5C 228.1,115.783 226.766,115.116 227,108.5C 226.667,109.167 226.333,109.833 226,110.5C 225.215,108.714 224.049,107.214 222.5,106C 217.024,105.296 214.024,107.796 213.5,113.5C 212.148,112.476 210.815,111.476 209.5,110.5C 206.248,108.853 203.414,109.52 201,112.5C 200.502,115.482 200.335,118.482 200.5,121.5C 198.018,119.497 197.018,116.831 197.5,113.5C 200.286,107.768 204.952,105.101 211.5,105.5C 213.199,105.473 214.533,104.806 215.5,103.5C 219.167,102.167 222.833,102.167 226.5,103.5 Z"/></g>
<g><path style="opacity:1" fill="#f1e7de" d="M 226.5,103.5 C 222.833,102.167 219.167,102.167 215.5,103.5C 215.953,102.542 216.619,101.708 217.5,101C 221.142,99.9302 224.142,100.764 226.5,103.5 Z"/></g>
<g><path style="opacity:1" fill="#fee2b5" d="M 210.5,128.5 C 210.663,130.857 210.497,133.19 210,135.5C 209.292,136.381 208.458,137.047 207.5,137.5C 209.212,135.104 209.712,132.438 209,129.5C 207.612,128.446 206.112,128.28 204.5,129C 203.366,130.016 203.699,130.683 205.5,131C 202.833,131.667 202.833,132.333 205.5,133C 202.284,134.605 201.951,136.438 204.5,138.5C 202.82,140.527 201.653,142.861 201,145.5C 200.667,149.5 200.333,153.5 200,157.5C 198.653,159.466 197.153,159.799 195.5,158.5C 197.144,157.684 198.31,156.35 199,154.5C 198.634,148.933 198.8,143.433 199.5,138C 197.191,135.949 195.024,136.116 193,138.5C 192.674,141.985 193.174,145.318 194.5,148.5C 193.127,148.343 191.793,148.51 190.5,149C 190.833,149.333 191.167,149.667 191.5,150C 186.011,152.105 185.345,155.105 189.5,159C 190.928,159.579 192.262,159.412 193.5,158.5C 193.649,159.552 193.483,160.552 193,161.5C 189.794,163.124 187.128,162.458 185,159.5C 182.667,152.786 184.833,148.619 191.5,147C 190.934,146.005 190.267,145.172 189.5,144.5C 189.189,136.936 192.689,133.602 200,134.5C 200.591,127.044 204.091,125.044 210.5,128.5 Z"/></g>
<g><path style="opacity:1" fill="#fffcf9" d="M 195.5,158.5 C 194.833,158.5 194.167,158.5 193.5,158.5C 192.262,159.412 190.928,159.579 189.5,159C 185.345,155.105 186.011,152.105 191.5,150C 191.167,149.667 190.833,149.333 190.5,149C 191.793,148.51 193.127,148.343 194.5,148.5C 193.174,145.318 192.674,141.985 193,138.5C 195.024,136.116 197.191,135.949 199.5,138C 198.8,143.433 198.634,148.933 199,154.5C 198.31,156.35 197.144,157.684 195.5,158.5 Z"/></g>
<g><path style="opacity:1" fill="#fcf9f6" d="M 270.5,147.5 C 281.293,185.061 285.626,223.394 283.5,262.5C 282.518,263.141 281.518,263.807 280.5,264.5C 280.167,263.5 279.833,262.5 279.5,261.5C 277.827,248.019 276.16,234.686 274.5,221.5C 274.533,217.131 274.2,212.798 273.5,208.5C 274.124,208.083 274.457,207.416 274.5,206.5C 274.357,203.594 273.357,201.261 271.5,199.5C 272.438,197.244 272.438,194.91 271.5,192.5C 270.114,180.134 268.448,167.8 266.5,155.5C 265.791,151.735 267.124,149.068 270.5,147.5 Z"/></g>
<g><path style="opacity:1" fill="#3c2826" d="M 232.5,143.5 C 232.232,145.099 232.566,146.432 233.5,147.5C 234.048,149.394 235.048,151.06 236.5,152.5C 243.062,155.634 248.895,154.634 254,149.5C 255.44,150.148 256.94,150.481 258.5,150.5C 263.463,151.026 266.796,149.026 268.5,144.5C 269.404,143.791 269.737,142.791 269.5,141.5C 275.568,147.731 282.068,148.064 289,142.5C 290.694,145.358 292.861,147.691 295.5,149.5C 295.5,150.167 295.5,150.833 295.5,151.5C 293.5,150.5 291.5,149.5 289.5,148.5C 289.631,147.624 289.298,146.957 288.5,146.5C 286.925,147.456 285.258,148.123 283.5,148.5C 279.217,150.009 275.217,149.342 271.5,146.5C 270.893,146.624 270.56,146.957 270.5,147.5C 267.124,149.068 265.791,151.735 266.5,155.5C 268.448,167.8 270.114,180.134 271.5,192.5C 270.307,192.03 269.64,191.03 269.5,189.5C 268.086,177.766 266.252,166.099 264,154.5C 262.989,153.663 261.822,153.33 260.5,153.5C 259.833,153.5 259.167,153.5 258.5,153.5C 253.455,154.184 248.455,155.184 243.5,156.5C 240.37,156.3 237.37,155.634 234.5,154.5C 234.44,153.957 234.107,153.624 233.5,153.5C 230.468,156.511 226.801,158.177 222.5,158.5C 221.476,159.852 220.476,161.185 219.5,162.5C 216.697,163.928 213.697,164.595 210.5,164.5C 209.833,164.167 209.167,163.833 208.5,163.5C 208.842,162.662 209.508,162.328 210.5,162.5C 217.358,162.64 221.025,159.307 221.5,152.5C 222.167,152.833 222.833,153.167 223.5,153.5C 226.061,154.831 228.561,154.498 231,152.5C 230.64,149.216 230.14,145.882 229.5,142.5C 229.653,139.2 230.653,136.2 232.5,133.5C 234.795,132.525 236.795,131.192 238.5,129.5C 242.215,129.423 245.881,129.756 249.5,130.5C 249.393,128.097 250.393,126.264 252.5,125C 258.516,122.173 263.183,123.673 266.5,129.5C 273.856,128.024 276.689,131.024 275,138.5C 274.163,140.007 272.996,140.507 271.5,140C 273.703,137.24 274.036,134.24 272.5,131C 269.653,130.056 267.153,130.556 265,132.5C 264.484,129.966 263.317,127.8 261.5,126C 254.486,123.687 250.652,126.187 250,133.5C 242.786,129.813 236.786,131.146 232,137.5C 231.211,139.712 231.378,141.712 232.5,143.5 Z"/></g>
<g><path style="opacity:1" fill="#f1a549" d="M 268.5,144.5 C 266.796,149.026 263.463,151.026 258.5,150.5C 259.514,149.326 260.847,148.66 262.5,148.5C 264.754,147.585 266.754,146.252 268.5,144.5 Z"/></g>
<g><path style="opacity:1" fill="#f38741" d="M 289.5,148.5 C 291.5,149.5 293.5,150.5 295.5,151.5C 297.5,151.5 299.5,151.5 301.5,151.5C 302.924,169.465 303.591,187.465 303.5,205.5C 303.146,219.563 301.979,233.563 300,247.5C 299.901,249.653 299.067,251.319 297.5,252.5C 298.654,217.507 295.988,182.84 289.5,148.5 Z"/></g>
<g><path style="opacity:1" fill="#fde1b5" d="M 206.5,148.5 C 207.167,148.5 207.833,148.5 208.5,148.5C 206.948,155.618 209.948,158.618 217.5,157.5C 216.376,158.809 214.876,159.475 213,159.5C 207.289,158.095 205.123,154.428 206.5,148.5 Z"/></g>
<g><path style="opacity:1" fill="#fde0b4" d="M 223.5,148.5 C 225.296,149.794 227.296,150.794 229.5,151.5C 227.827,153.086 225.827,153.753 223.5,153.5C 222.833,153.167 222.167,152.833 221.5,152.5C 221.167,152.5 220.833,152.5 220.5,152.5C 221.5,151.167 222.5,149.833 223.5,148.5 Z"/></g>
<g><path style="opacity:1" fill="#fbf3f1" d="M 303.5,205.5 C 303.591,187.465 302.924,169.465 301.5,151.5C 302.496,151.586 303.329,151.252 304,150.5C 304.829,169.005 304.662,187.338 303.5,205.5 Z"/></g>
<g><path style="opacity:1" fill="#a07336" d="M 258.5,153.5 C 258.5,154.167 258.5,154.833 258.5,155.5C 254.035,158.544 249.035,160.21 243.5,160.5C 243.5,160.167 243.5,159.833 243.5,159.5C 243.5,158.5 243.5,157.5 243.5,156.5C 248.455,155.184 253.455,154.184 258.5,153.5 Z"/></g>
<g><path style="opacity:1" fill="#f7d8a5" d="M 260.5,153.5 C 261.822,153.33 262.989,153.663 264,154.5C 266.252,166.099 268.086,177.766 269.5,189.5C 269.64,191.03 270.307,192.03 271.5,192.5C 272.438,194.91 272.438,197.244 271.5,199.5C 271.42,202.781 272.087,205.781 273.5,208.5C 274.2,212.798 274.533,217.131 274.5,221.5C 273.839,223.134 273.506,224.967 273.5,227C 274.798,240.178 276.131,253.345 277.5,266.5C 275.167,266.5 272.833,266.5 270.5,266.5C 272.055,228.374 268.721,190.707 260.5,153.5 Z"/></g>
<g><path style="opacity:1" fill="#a09797" d="M 234.5,154.5 C 237.37,155.634 240.37,156.3 243.5,156.5C 243.5,157.5 243.5,158.5 243.5,159.5C 239.921,159.316 236.587,159.983 233.5,161.5C 233.198,158.941 233.532,156.607 234.5,154.5 Z"/></g>
<g><path style="opacity:1" fill="#9b5733" d="M 234.5,154.5 C 233.532,156.607 233.198,158.941 233.5,161.5C 233.5,161.833 233.5,162.167 233.5,162.5C 230.276,162.797 227.276,162.13 224.5,160.5C 223.143,162.186 221.81,163.852 220.5,165.5C 220.167,165.5 219.833,165.5 219.5,165.5C 219.5,164.5 219.5,163.5 219.5,162.5C 220.476,161.185 221.476,159.852 222.5,158.5C 226.801,158.177 230.468,156.511 233.5,153.5C 234.107,153.624 234.44,153.957 234.5,154.5 Z"/></g>
<g><path style="opacity:1" fill="#fefdfb" d="M 258.5,153.5 C 259.167,153.5 259.833,153.5 260.5,153.5C 268.721,190.707 272.055,228.374 270.5,266.5C 268.735,267.461 266.735,267.795 264.5,267.5C 259.252,230.363 257.252,193.03 258.5,155.5C 258.5,154.833 258.5,154.167 258.5,153.5 Z"/></g>
<g><path style="opacity:1" fill="#fff0d9" d="M 166.5,142.5 C 166.047,143.458 165.381,144.292 164.5,145C 165.43,146.395 165.43,147.895 164.5,149.5C 166.849,151.204 167.849,153.537 167.5,156.5C 166.833,156.5 166.167,156.5 165.5,156.5C 165.565,156.062 165.399,155.728 165,155.5C 163.908,158.044 163.241,160.711 163,163.5C 157.283,166.976 154.116,165.309 153.5,158.5C 153.096,154.714 153.929,154.048 156,156.5C 156.85,155.576 157.85,155.576 159,156.5C 159.919,154.96 161.753,153.793 164.5,153C 161.71,150.79 160.877,147.956 162,144.5C 163.11,142.963 164.61,142.297 166.5,142.5 Z"/></g>
<g><path style="opacity:1" fill="#f3f0ef" d="M 243.5,159.5 C 243.5,159.833 243.5,160.167 243.5,160.5C 243.5,162.167 243.5,163.833 243.5,165.5C 240.272,164.586 236.939,164.253 233.5,164.5C 233.5,163.833 233.5,163.167 233.5,162.5C 233.5,162.167 233.5,161.833 233.5,161.5C 236.587,159.983 239.921,159.316 243.5,159.5 Z"/></g>
<g><path style="opacity:1" fill="#fee0b1" d="M 177.5,146.5 C 175.381,151.351 175.047,156.351 176.5,161.5C 175.002,167.249 172.169,167.916 168,163.5C 167.153,161.146 166.32,158.812 165.5,156.5C 166.167,156.5 166.833,156.5 167.5,156.5C 168.204,160.537 170.537,162.87 174.5,163.5C 174.715,159.499 174.048,155.665 172.5,152C 172.955,149.046 174.622,147.212 177.5,146.5 Z"/></g>
<g><path style="opacity:1" fill="#911d22" d="M 208.5,163.5 C 209.167,163.833 209.833,164.167 210.5,164.5C 210.5,165.833 210.5,167.167 210.5,168.5C 206.694,168.98 203.361,167.98 200.5,165.5C 198.479,168.188 196.146,170.521 193.5,172.5C 193.167,172.5 192.833,172.5 192.5,172.5C 192.672,171.508 192.338,170.842 191.5,170.5C 193.334,168.495 195.001,166.328 196.5,164C 198.936,163.07 201.269,161.903 203.5,160.5C 205.029,161.763 206.695,162.763 208.5,163.5 Z"/></g>
<g><path style="opacity:1" fill="#f18440" d="M 233.5,162.5 C 233.5,163.167 233.5,163.833 233.5,164.5C 229.32,165.01 227.32,167.344 227.5,171.5C 229.861,171.326 232.194,170.993 234.5,170.5C 234.5,172.5 234.5,174.5 234.5,176.5C 225.823,183.046 224.323,191.046 230,200.5C 231.758,202.765 233.925,204.432 236.5,205.5C 236.5,209.167 236.5,212.833 236.5,216.5C 233.014,218.106 229.347,219.106 225.5,219.5C 223.438,201.545 221.771,183.545 220.5,165.5C 221.81,163.852 223.143,162.186 224.5,160.5C 227.276,162.13 230.276,162.797 233.5,162.5 Z"/></g>
<g><path style="opacity:1" fill="#f1eae1" d="M 330.5,160.5 C 329.85,162.435 329.517,164.435 329.5,166.5C 328.861,165.903 328.528,165.07 328.5,164C 328.387,162.301 329.053,161.134 330.5,160.5 Z"/></g>
<g><path style="opacity:1" fill="#e45f34" d="M 335.5,162.5 C 338.357,167.369 337.857,172.036 334,176.5C 333.289,178.899 333.456,181.232 334.5,183.5C 333.758,184.287 332.925,184.953 332,185.5C 332.066,188.578 331.899,191.578 331.5,194.5C 331.167,195.167 330.833,195.833 330.5,196.5C 323.572,193.935 321.739,189.268 325,182.5C 326.697,179.98 328.53,177.647 330.5,175.5C 331.485,171.366 331.818,167.032 331.5,162.5C 332.833,162.5 334.167,162.5 335.5,162.5 Z"/></g>
<g><path style="opacity:1" fill="#a19a9c" d="M 219.5,162.5 C 219.5,163.5 219.5,164.5 219.5,165.5C 217.044,167.868 214.044,168.868 210.5,168.5C 210.5,167.167 210.5,165.833 210.5,164.5C 213.697,164.595 216.697,163.928 219.5,162.5 Z"/></g>
<g><path style="opacity:1" fill="#301e1f" d="M 233.5,164.5 C 236.939,164.253 240.272,164.586 243.5,165.5C 246.659,166.582 249.326,168.416 251.5,171C 249.203,171.018 246.869,170.851 244.5,170.5C 241.269,169.218 237.936,169.218 234.5,170.5C 232.194,170.993 229.861,171.326 227.5,171.5C 227.32,167.344 229.32,165.01 233.5,164.5 Z"/></g>
<g><path style="opacity:1" fill="#dd2228" d="M 210.5,168.5 C 211.167,175.833 211.833,183.167 212.5,190.5C 212.167,190.5 211.833,190.5 211.5,190.5C 211.167,188.167 209.833,186.833 207.5,186.5C 207.389,185.883 207.056,185.383 206.5,185C 203.183,184.502 199.85,184.335 196.5,184.5C 196.5,182.5 196.5,180.5 196.5,178.5C 200.064,177.577 203.731,177.244 207.5,177.5C 208.035,174.762 207.035,172.928 204.5,172C 200.643,171.242 196.977,171.742 193.5,173.5C 193.5,173.167 193.5,172.833 193.5,172.5C 196.146,170.521 198.479,168.188 200.5,165.5C 203.361,167.98 206.694,168.98 210.5,168.5 Z"/></g>
<g><path style="opacity:1" fill="#fefaf9" d="M 219.5,165.5 C 219.833,165.5 220.167,165.5 220.5,165.5C 221.771,183.545 223.438,201.545 225.5,219.5C 222.456,221.011 219.122,221.678 215.5,221.5C 214.78,215.862 214.447,210.196 214.5,204.5C 214.882,199.633 214.215,194.966 212.5,190.5C 211.833,183.167 211.167,175.833 210.5,168.5C 214.044,168.868 217.044,167.868 219.5,165.5 Z"/></g>
<g><path style="opacity:1" fill="#fab34e" d="M 330.5,160.5 C 332.698,160.12 334.365,160.787 335.5,162.5C 334.167,162.5 332.833,162.5 331.5,162.5C 331.818,167.032 331.485,171.366 330.5,175.5C 330.492,172.455 330.159,169.455 329.5,166.5C 329.517,164.435 329.85,162.435 330.5,160.5 Z"/></g>
<g><path style="opacity:1" fill="#911d21" d="M 185.5,170.5 C 185.5,171.5 185.5,172.5 185.5,173.5C 184.305,173.322 183.138,172.989 182,172.5C 178.537,175.883 174.371,177.216 169.5,176.5C 168.833,176.5 168.5,176.167 168.5,175.5C 168.167,174.167 167.833,172.833 167.5,171.5C 172.468,172.944 176.635,171.611 180,167.5C 181.765,168.632 183.598,169.632 185.5,170.5 Z"/></g>
<g><path style="opacity:1" fill="#8a7f81" d="M 167.5,171.5 C 167.833,172.833 168.167,174.167 168.5,175.5C 165.689,173.911 163.689,174.577 162.5,177.5C 159.259,173.989 159.926,171.323 164.5,169.5C 165.518,170.193 166.518,170.859 167.5,171.5 Z"/></g>
<g><path style="opacity:1" fill="#a29798" d="M 185.5,170.5 C 187.5,170.5 189.5,170.5 191.5,170.5C 192.338,170.842 192.672,171.508 192.5,172.5C 190.621,173.341 188.621,173.675 186.5,173.5C 186.167,173.5 185.833,173.5 185.5,173.5C 185.5,172.5 185.5,171.5 185.5,170.5 Z"/></g>
<g><path style="opacity:1" fill="#f5f4f3" d="M 244.5,170.5 C 244.5,172.833 244.5,175.167 244.5,177.5C 241.214,176.793 237.881,176.46 234.5,176.5C 234.5,174.5 234.5,172.5 234.5,170.5C 237.936,169.218 241.269,169.218 244.5,170.5 Z"/></g>
<g><path style="opacity:1" fill="#321c1f" d="M 196.5,178.5 C 192.728,178.884 189.728,180.55 187.5,183.5C 186.624,183.631 185.957,183.298 185.5,182.5C 186.127,181.583 186.461,180.583 186.5,179.5C 188.858,177.471 191.192,175.471 193.5,173.5C 196.977,171.742 200.643,171.242 204.5,172C 207.035,172.928 208.035,174.762 207.5,177.5C 203.731,177.244 200.064,177.577 196.5,178.5 Z"/></g>
<g><path style="opacity:1" fill="#e42429" d="M 185.5,173.5 C 185.833,173.5 186.167,173.5 186.5,173.5C 186.5,175.5 186.5,177.5 186.5,179.5C 186.461,180.583 186.127,181.583 185.5,182.5C 185.957,183.298 186.624,183.631 187.5,183.5C 187.808,187.36 188.475,191.026 189.5,194.5C 189.264,197.609 189.597,200.609 190.5,203.5C 191.74,211.51 193.073,219.51 194.5,227.5C 196.199,242.694 198.865,257.694 202.5,272.5C 198.5,272.833 194.5,273.167 190.5,273.5C 189.247,239.903 182.247,207.569 169.5,176.5C 174.371,177.216 178.537,175.883 182,172.5C 183.138,172.989 184.305,173.322 185.5,173.5 Z"/></g>
<g><path style="opacity:1" fill="#ece9e9" d="M 192.5,172.5 C 192.833,172.5 193.167,172.5 193.5,172.5C 193.5,172.833 193.5,173.167 193.5,173.5C 191.192,175.471 188.858,177.471 186.5,179.5C 186.5,177.5 186.5,175.5 186.5,173.5C 188.621,173.675 190.621,173.341 192.5,172.5 Z"/></g>
<g><path style="opacity:1" fill="#d9cdce" d="M 168.5,175.5 C 168.5,176.167 168.833,176.5 169.5,176.5C 182.247,207.569 189.247,239.903 190.5,273.5C 189.5,273.5 188.5,273.5 187.5,273.5C 185.098,239.888 176.764,207.888 162.5,177.5C 163.689,174.577 165.689,173.911 168.5,175.5 Z"/></g>
<g><path style="opacity:1" fill="#f7f0f0" d="M 196.5,178.5 C 196.5,180.5 196.5,182.5 196.5,184.5C 193.325,187.325 190.992,190.659 189.5,194.5C 188.475,191.026 187.808,187.36 187.5,183.5C 189.728,180.55 192.728,178.884 196.5,178.5 Z"/></g>
<g><path style="opacity:1" fill="#e85e34" d="M 335.5,179.5 C 340.216,179.121 344.55,180.121 348.5,182.5C 350.168,184.479 350.834,186.812 350.5,189.5C 344.943,188.802 340.109,186.469 336,182.5C 335.517,181.552 335.351,180.552 335.5,179.5 Z"/></g>
<g><path style="opacity:1" fill="#f3b777" d="M 348.5,182.5 C 344.55,180.121 340.216,179.121 335.5,179.5C 336.334,178.252 337.667,177.585 339.5,177.5C 343.199,178.085 346.199,179.752 348.5,182.5 Z"/></g>
<g><path style="opacity:1" fill="#402023" d="M 207.5,186.5 C 209.833,186.833 211.167,188.167 211.5,190.5C 209.833,189.5 208.5,188.167 207.5,186.5 Z"/></g>
<g><path style="opacity:1" fill="#f1e2d1" d="M 343.5,190.5 C 343.167,190.5 342.833,190.5 342.5,190.5C 339.883,188.566 337.217,188.233 334.5,189.5C 333.596,188.791 333.263,187.791 333.5,186.5C 337.567,186.206 340.9,187.54 343.5,190.5 Z"/></g>
<g><path style="opacity:1" fill="#e85d34" d="M 342.5,190.5 C 344.102,192.074 346.102,192.741 348.5,192.5C 342.988,196.908 338.322,195.908 334.5,189.5C 337.217,188.233 339.883,188.566 342.5,190.5 Z"/></g>
<g><path style="opacity:1" fill="#2194ad" d="M 207.5,186.5 C 208.5,188.167 209.833,189.5 211.5,190.5C 213.371,194.531 213.704,198.531 212.5,202.5C 212.5,200.5 212.5,198.5 212.5,196.5C 209.812,196.166 207.479,196.832 205.5,198.5C 205.824,194.463 204.158,191.797 200.5,190.5C 195.565,189.453 194.232,191.453 196.5,196.5C 196.929,199.147 198.262,201.147 200.5,202.5C 198.949,204.913 198.283,207.579 198.5,210.5C 191.107,204.851 189.607,197.851 194,189.5C 197.771,185.453 202.271,184.453 207.5,186.5 Z"/></g>
<g><path style="opacity:1" fill="#ebeeef" d="M 200.5,190.5 C 202.072,194.28 200.738,196.28 196.5,196.5C 194.232,191.453 195.565,189.453 200.5,190.5 Z"/></g>
<g><path style="opacity:1" fill="#de994e" d="M 342.5,190.5 C 342.833,190.5 343.167,190.5 343.5,190.5C 346.025,190.776 347.692,191.443 348.5,192.5C 346.102,192.741 344.102,192.074 342.5,190.5 Z"/></g>
<g><path style="opacity:1" fill="#eca858" d="M 345.5,197.5 C 344.726,198.147 343.726,198.48 342.5,198.5C 340.068,198.114 337.734,197.447 335.5,196.5C 333.668,195.86 333.335,194.86 334.5,193.5C 337.661,196.248 341.327,197.581 345.5,197.5 Z"/></g>
<g><path style="opacity:1" fill="#e56b39" d="M 130.5,196.5 C 131.873,196.343 133.207,196.51 134.5,197C 138.072,201.308 140.738,206.141 142.5,211.5C 142.297,213.208 141.464,214.541 140,215.5C 136.274,209.381 133.107,203.048 130.5,196.5 Z"/></g>
<g><path style="opacity:1" fill="#e56435" d="M 322.5,196.5 C 328.341,196.332 332.341,198.998 334.5,204.5C 329.791,206.01 325.957,204.676 323,200.5C 322.51,199.207 322.343,197.873 322.5,196.5 Z"/></g>
<g><path style="opacity:1" fill="#e05932" d="M 335.5,196.5 C 337.734,197.447 340.068,198.114 342.5,198.5C 343.726,198.48 344.726,198.147 345.5,197.5C 346.525,197.897 346.692,198.563 346,199.5C 341.663,201.308 338.163,200.308 335.5,196.5 Z"/></g>
<g><path style="opacity:1" fill="#3c2c2d" d="M 271.5,199.5 C 273.357,201.261 274.357,203.594 274.5,206.5C 274.457,207.416 274.124,208.083 273.5,208.5C 272.087,205.781 271.42,202.781 271.5,199.5 Z"/></g>
<g><path style="opacity:1" fill="#362a2c" d="M 234.5,176.5 C 237.881,176.46 241.214,176.793 244.5,177.5C 252.616,185.319 253.616,193.986 247.5,203.5C 244.145,206.239 240.478,206.905 236.5,205.5C 233.925,204.432 231.758,202.765 230,200.5C 224.323,191.046 225.823,183.046 234.5,176.5 Z"/></g>
<g><path style="opacity:1" fill="#1cbada" d="M 249.5,194.5 C 247.901,202.794 243.234,205.461 235.5,202.5C 235.767,200.035 236.434,197.701 237.5,195.5C 240.367,195.631 242.033,194.297 242.5,191.5C 243.991,188.909 246.325,187.909 249.5,188.5C 249.5,190.5 249.5,192.5 249.5,194.5 Z"/></g>
<g><path style="opacity:1" fill="#2f2427" d="M 236.5,182.5 C 240.852,183.864 242.852,186.864 242.5,191.5C 242.033,194.297 240.367,195.631 237.5,195.5C 236.315,194.143 235.315,192.643 234.5,191C 235.056,189.989 235.722,189.156 236.5,188.5C 237.742,186.611 237.742,184.611 236.5,182.5 Z"/></g>
<g><path style="opacity:1" fill="#2694ad" d="M 249.5,194.5 C 249.5,192.5 249.5,190.5 249.5,188.5C 246.325,187.909 243.991,188.909 242.5,191.5C 242.852,186.864 240.852,183.864 236.5,182.5C 235.167,182.5 233.833,182.5 232.5,182.5C 232.5,184.5 232.5,186.5 232.5,188.5C 233.833,188.5 235.167,188.5 236.5,188.5C 235.722,189.156 235.056,189.989 234.5,191C 235.315,192.643 236.315,194.143 237.5,195.5C 236.434,197.701 235.767,200.035 235.5,202.5C 229.711,198.31 227.544,192.643 229,185.5C 231.899,178.871 236.732,176.705 243.5,179C 249.122,183.031 251.122,188.198 249.5,194.5 Z"/></g>
<g><path style="opacity:1" fill="#f5f8f9" d="M 236.5,182.5 C 237.742,184.611 237.742,186.611 236.5,188.5C 235.167,188.5 233.833,188.5 232.5,188.5C 232.5,186.5 232.5,184.5 232.5,182.5C 233.833,182.5 235.167,182.5 236.5,182.5 Z"/></g>
<g><path style="opacity:1" fill="#cc5130" d="M 334.5,199.5 C 336.14,200.32 337.807,201.153 339.5,202C 336.623,204.041 334.957,203.208 334.5,199.5 Z"/></g>
<g><path style="opacity:1" fill="#edd0a8" d="M 126.5,203.5 C 124.565,202.85 122.565,202.517 120.5,202.5C 122.815,199.811 124.815,200.145 126.5,203.5 Z"/></g>
<g><path style="opacity:1" fill="#e96736" d="M 120.5,202.5 C 122.565,202.517 124.565,202.85 126.5,203.5C 127.08,205.749 128.413,207.415 130.5,208.5C 132.587,209.585 133.92,211.251 134.5,213.5C 135.167,215.167 135.833,216.833 136.5,218.5C 136.44,219.043 136.107,219.376 135.5,219.5C 131.981,215.148 127.981,211.314 123.5,208C 121.393,206.736 120.393,204.903 120.5,202.5 Z"/></g>
<g><path style="opacity:1" fill="#e3ae69" d="M 126.5,203.5 C 128.587,204.585 129.92,206.251 130.5,208.5C 128.413,207.415 127.08,205.749 126.5,203.5 Z"/></g>
<g><path style="opacity:1" fill="#e59a55" d="M 155.5,208.5 C 154.833,208.167 154.167,207.833 153.5,207.5C 151.233,205.689 148.9,205.022 146.5,205.5C 150.863,202.342 153.863,203.342 155.5,208.5 Z"/></g>
<g><path style="opacity:1" fill="#e85e34" d="M 326.5,206.5 C 327.525,206.897 327.692,207.563 327,208.5C 321.265,215.233 314.598,220.9 307,225.5C 306.333,221.833 306.333,218.167 307,214.5C 310.139,212.353 313.305,210.353 316.5,208.5C 318.148,207.19 319.814,205.857 321.5,204.5C 322.85,205.95 324.516,206.617 326.5,206.5 Z"/></g>
<g><path style="opacity:1" fill="#faf8f6" d="M 247.5,203.5 C 247.5,206.167 247.5,208.833 247.5,211.5C 244.26,213.951 240.593,215.618 236.5,216.5C 236.5,212.833 236.5,209.167 236.5,205.5C 240.478,206.905 244.145,206.239 247.5,203.5 Z"/></g>
<g><path style="opacity:1" fill="#e6a444" d="M 326.5,206.5 C 324.516,206.617 322.85,205.95 321.5,204.5C 319.814,205.857 318.148,207.19 316.5,208.5C 317.75,206.068 319.25,203.734 321,201.5C 322.812,203.3 324.645,204.967 326.5,206.5 Z"/></g>
<g><path style="opacity:1" fill="#faf6f6" d="M 190.5,203.5 C 192.134,208.468 195.468,211.801 200.5,213.5C 200.368,216.57 200.701,219.57 201.5,222.5C 201.205,224.735 201.539,226.735 202.5,228.5C 203.24,237.161 203.907,245.827 204.5,254.5C 200.373,245.786 197.04,236.786 194.5,227.5C 193.073,219.51 191.74,211.51 190.5,203.5 Z"/></g>
<g><path style="opacity:1" fill="#35292c" d="M 196.5,184.5 C 199.85,184.335 203.183,184.502 206.5,185C 207.056,185.383 207.389,185.883 207.5,186.5C 202.271,184.453 197.771,185.453 194,189.5C 189.607,197.851 191.107,204.851 198.5,210.5C 205.836,212.499 210.503,209.832 212.5,202.5C 213.704,198.531 213.371,194.531 211.5,190.5C 211.833,190.5 212.167,190.5 212.5,190.5C 214.215,194.966 214.882,199.633 214.5,204.5C 211.931,210.732 207.264,213.732 200.5,213.5C 195.468,211.801 192.134,208.468 190.5,203.5C 189.597,200.609 189.264,197.609 189.5,194.5C 190.992,190.659 193.325,187.325 196.5,184.5 Z"/></g>
<g><path style="opacity:1" fill="#1cb9d8" d="M 212.5,202.5 C 210.503,209.832 205.836,212.499 198.5,210.5C 198.283,207.579 198.949,204.913 200.5,202.5C 203.367,202.631 205.033,201.297 205.5,198.5C 207.479,196.832 209.812,196.166 212.5,196.5C 212.5,198.5 212.5,200.5 212.5,202.5 Z"/></g>
<g><path style="opacity:1" fill="#2c1f22" d="M 200.5,190.5 C 204.158,191.797 205.824,194.463 205.5,198.5C 205.033,201.297 203.367,202.631 200.5,202.5C 198.262,201.147 196.929,199.147 196.5,196.5C 200.738,196.28 202.072,194.28 200.5,190.5 Z"/></g>
<g><path style="opacity:1" fill="#d9282a" d="M 214.5,204.5 C 214.447,210.196 214.78,215.862 215.5,221.5C 211.7,222.779 207.7,223.279 203.5,223C 204.5,222 205.5,221 206.5,220C 204.332,219.751 202.665,220.584 201.5,222.5C 200.701,219.57 200.368,216.57 200.5,213.5C 207.264,213.732 211.931,210.732 214.5,204.5 Z"/></g>
<g><path style="opacity:1" fill="#e8b173" d="M 147.5,208.5 C 151.829,207.697 153.329,209.697 152,214.5C 151.722,215.416 151.222,216.082 150.5,216.5C 151.172,213.058 150.172,210.391 147.5,208.5 Z"/></g>
<g><path style="opacity:1" fill="#e55d34" d="M 147.5,208.5 C 150.172,210.391 151.172,213.058 150.5,216.5C 149.122,218.875 147.122,220.541 144.5,221.5C 149.306,222.638 151.973,225.638 152.5,230.5C 153.553,229.562 154.22,228.395 154.5,227C 153.224,224.719 151.557,222.719 149.5,221C 150.354,219.978 151.354,219.145 152.5,218.5C 155.201,221.152 157.868,221.152 160.5,218.5C 161.301,220.042 161.634,221.708 161.5,223.5C 159.61,223.297 158.11,223.963 157,225.5C 155.259,228.309 154.092,231.309 153.5,234.5C 146.183,233.686 140.517,230.186 136.5,224C 140.404,218.941 144.07,213.775 147.5,208.5 Z"/></g>
<g><path style="opacity:1" fill="#de6536" d="M 153.5,207.5 C 154.167,207.833 154.833,208.167 155.5,208.5C 157.41,211.452 158.41,214.786 158.5,218.5C 156.856,218.714 155.356,218.38 154,217.5C 154.509,214.131 154.343,210.798 153.5,207.5 Z"/></g>
<g><path style="opacity:1" fill="#f9b84e" d="M 258.5,155.5 C 257.252,193.03 259.252,230.363 264.5,267.5C 260.176,267.927 255.842,268.261 251.5,268.5C 251.5,265.167 251.5,261.833 251.5,258.5C 252.928,255.988 253.428,253.322 253,250.5C 252.8,252.32 251.966,253.653 250.5,254.5C 250.5,253.5 250.5,252.5 250.5,251.5C 251.92,247.652 252.587,243.652 252.5,239.5C 251.016,232.231 250.516,224.898 251,217.5C 251.914,215.336 253.081,213.336 254.5,211.5C 255.799,212.09 256.632,213.09 257,214.5C 257.279,208.697 254.446,206.197 248.5,207C 254.857,208.895 254.524,210.395 247.5,211.5C 247.5,208.833 247.5,206.167 247.5,203.5C 253.616,193.986 252.616,185.319 244.5,177.5C 244.5,175.167 244.5,172.833 244.5,170.5C 246.869,170.851 249.203,171.018 251.5,171C 249.326,168.416 246.659,166.582 243.5,165.5C 243.5,163.833 243.5,162.167 243.5,160.5C 249.035,160.21 254.035,158.544 258.5,155.5 Z"/></g>
<g><path style="opacity:1" fill="#e5a75f" d="M 134.5,213.5 C 136.145,214.479 137.479,215.812 138.5,217.5C 138.043,218.298 137.376,218.631 136.5,218.5C 135.833,216.833 135.167,215.167 134.5,213.5 Z"/></g>
<g><path style="opacity:1" fill="#bcac9d" d="M 161.5,223.5 C 161.634,221.708 161.301,220.042 160.5,218.5C 160.81,217.262 161.31,217.262 162,218.5C 162.78,220.387 162.613,222.054 161.5,223.5 Z"/></g>
<g><path style="opacity:1" fill="#e12428" d="M 220.5,258.5 C 221.238,262.715 222.572,266.715 224.5,270.5C 218.678,271.489 212.678,272.156 206.5,272.5C 206.477,266.288 205.81,260.288 204.5,254.5C 203.907,245.827 203.24,237.161 202.5,228.5C 202.351,227.448 202.517,226.448 203,225.5C 209.335,231.81 213.001,239.477 214,248.5C 215.928,252.032 218.095,255.366 220.5,258.5 Z"/></g>
<g><path style="opacity:1" fill="#dc6235" d="M 159.5,225.5 C 160.708,229.432 159.874,233.099 157,236.5C 156.056,235.737 155.556,234.737 155.5,233.5C 156.317,230.533 157.65,227.866 159.5,225.5 Z"/></g>
<g><path style="opacity:1" fill="#e9e5e1" d="M 166.5,231.5 C 165.167,231.5 163.833,231.5 162.5,231.5C 163.293,227.835 164.626,227.835 166.5,231.5 Z"/></g>
<g><path style="opacity:1" fill="#f6b656" d="M 162.5,231.5 C 163.833,231.5 165.167,231.5 166.5,231.5C 168.368,232.263 170.035,233.263 171.5,234.5C 169.095,234.134 166.762,233.467 164.5,232.5C 163.416,232.685 162.416,233.018 161.5,233.5C 161.328,232.508 161.662,231.842 162.5,231.5 Z"/></g>
<g><path style="opacity:1" fill="#e66435" d="M 171.5,234.5 C 174.05,235.358 176.55,236.358 179,237.5C 179.495,239.473 179.662,241.473 179.5,243.5C 172.294,242.398 165.961,239.398 160.5,234.5C 160.624,233.893 160.957,233.56 161.5,233.5C 162.416,233.018 163.416,232.685 164.5,232.5C 166.762,233.467 169.095,234.134 171.5,234.5 Z"/></g>
<g><path style="opacity:1" fill="#dcd4d5" d="M 194.5,227.5 C 197.04,236.786 200.373,245.786 204.5,254.5C 205.81,260.288 206.477,266.288 206.5,272.5C 205.167,272.5 203.833,272.5 202.5,272.5C 198.865,257.694 196.199,242.694 194.5,227.5 Z"/></g>
<g><path style="opacity:1" fill="#e7e5e6" d="M 250.5,251.5 C 250.5,252.5 250.5,253.5 250.5,254.5C 248.855,258.145 246.188,260.812 242.5,262.5C 242.5,261.5 242.5,260.5 242.5,259.5C 246.062,257.693 248.728,255.027 250.5,251.5 Z"/></g>
<g><path style="opacity:1" fill="#3b2726" d="M 251.5,258.5 C 249.116,260.885 246.45,262.885 243.5,264.5C 234.909,265.938 234.576,265.272 242.5,262.5C 246.188,260.812 248.855,258.145 250.5,254.5C 251.966,253.653 252.8,252.32 253,250.5C 253.428,253.322 252.928,255.988 251.5,258.5 Z"/></g>
<g><path style="opacity:1" fill="#faf2f1" d="M 220.5,258.5 C 223.636,260.297 226.97,261.631 230.5,262.5C 230.5,265.167 230.5,267.833 230.5,270.5C 228.5,270.5 226.5,270.5 224.5,270.5C 222.572,266.715 221.238,262.715 220.5,258.5 Z"/></g>
<g><path style="opacity:1" fill="#392222" d="M 250.5,251.5 C 248.728,255.027 246.062,257.693 242.5,259.5C 238.765,261.434 234.765,262.434 230.5,262.5C 226.97,261.631 223.636,260.297 220.5,258.5C 218.095,255.366 215.928,252.032 214,248.5C 213.001,239.477 209.335,231.81 203,225.5C 202.517,226.448 202.351,227.448 202.5,228.5C 201.539,226.735 201.205,224.735 201.5,222.5C 202.665,220.584 204.332,219.751 206.5,220C 205.5,221 204.5,222 203.5,223C 207.7,223.279 211.7,222.779 215.5,221.5C 219.122,221.678 222.456,221.011 225.5,219.5C 229.347,219.106 233.014,218.106 236.5,216.5C 240.593,215.618 244.26,213.951 247.5,211.5C 254.524,210.395 254.857,208.895 248.5,207C 254.446,206.197 257.279,208.697 257,214.5C 256.632,213.09 255.799,212.09 254.5,211.5C 253.081,213.336 251.914,215.336 251,217.5C 250.516,224.898 251.016,232.231 252.5,239.5C 252.587,243.652 251.92,247.652 250.5,251.5 Z"/></g>
<g><path style="opacity:1" fill="#e96469" d="M 244.5,255.5 C 236.257,262.402 228.257,262.069 220.5,254.5C 218.531,250.566 219.698,248.233 224,247.5C 227.844,247.668 230.844,249.335 233,252.5C 233.094,242.732 236.761,241.065 244,247.5C 244.497,250.146 244.664,252.813 244.5,255.5 Z"/></g>
<g><path style="opacity:1" fill="#dd2027" d="M 249.5,247.5 C 248.617,250.704 246.95,253.371 244.5,255.5C 244.664,252.813 244.497,250.146 244,247.5C 236.761,241.065 233.094,242.732 233,252.5C 230.844,249.335 227.844,247.668 224,247.5C 219.698,248.233 218.531,250.566 220.5,254.5C 217.556,252.284 215.889,249.284 215.5,245.5C 215.155,242.512 216.488,241.179 219.5,241.5C 223.708,241.733 227.208,243.4 230,246.5C 230.065,243.802 228.898,241.636 226.5,240C 232.287,237.878 237.953,238.211 243.5,241C 246.409,242.406 248.409,244.572 249.5,247.5 Z"/></g>
<g><path style="opacity:1" fill="#f6f4f4" d="M 242.5,216.5 C 243.751,219.793 243.751,223.126 242.5,226.5C 233.983,230.643 224.983,232.976 215.5,233.5C 215.127,230.426 214.461,227.426 213.5,224.5C 223.493,222.919 233.16,220.252 242.5,216.5 Z"/></g>
<g><path style="opacity:1" fill="#5d1d21" d="M 249.5,247.5 C 248.409,244.572 246.409,242.406 243.5,241C 237.953,238.211 232.287,237.878 226.5,240C 228.898,241.636 230.065,243.802 230,246.5C 227.208,243.4 223.708,241.733 219.5,241.5C 216.488,241.179 215.155,242.512 215.5,245.5C 214.45,238.042 211.45,231.375 206.5,225.5C 208.743,224.526 211.076,224.192 213.5,224.5C 214.461,227.426 215.127,230.426 215.5,233.5C 224.983,232.976 233.983,230.643 242.5,226.5C 243.751,223.126 243.751,219.793 242.5,216.5C 244.928,215.788 247.261,214.788 249.5,213.5C 249.833,213.833 250.167,214.167 250.5,214.5C 249.116,217.334 248.449,220.334 248.5,223.5C 249.33,229.315 249.997,235.149 250.5,241C 250.496,243.361 250.163,245.527 249.5,247.5 Z"/></g>
<g><path style="opacity:1" fill="#f0eeed" d="M 251.5,258.5 C 251.5,261.833 251.5,265.167 251.5,268.5C 248.904,269.265 246.237,269.599 243.5,269.5C 243.5,267.833 243.5,266.167 243.5,264.5C 246.45,262.885 249.116,260.885 251.5,258.5 Z"/></g>
<g><path style="opacity:1" fill="#e67e3d" d="M 242.5,259.5 C 242.5,260.5 242.5,261.5 242.5,262.5C 234.576,265.272 234.909,265.938 243.5,264.5C 243.5,266.167 243.5,267.833 243.5,269.5C 239.131,269.467 234.798,269.8 230.5,270.5C 230.5,267.833 230.5,265.167 230.5,262.5C 234.765,262.434 238.765,261.434 242.5,259.5 Z"/></g>
<g><path style="opacity:1" fill="#f4b148" d="M 258.5,271.5 C 260.144,271.286 261.644,271.62 263,272.5C 264.068,275.871 265.235,279.204 266.5,282.5C 264.812,284.854 262.812,286.854 260.5,288.5C 259.482,283.016 258.816,277.349 258.5,271.5 Z"/></g>
<g><path style="opacity:1" fill="#e32426" d="M 253.5,272.5 C 254.32,278.797 254.653,285.131 254.5,291.5C 253.791,292.404 252.791,292.737 251.5,292.5C 250.724,285.863 250.391,279.196 250.5,272.5C 251.5,272.5 252.5,272.5 253.5,272.5 Z"/></g>
<g><path style="opacity:1" fill="#ef7338" d="M 258.5,271.5 C 258.816,277.349 259.482,283.016 260.5,288.5C 258.819,290.008 256.819,291.008 254.5,291.5C 254.653,285.131 254.32,278.797 253.5,272.5C 255.117,271.962 256.784,271.629 258.5,271.5 Z"/></g>
<g><path style="opacity:1" fill="#d92a26" d="M 213.5,275.5 C 214.732,283.158 214.732,290.825 213.5,298.5C 210.757,298.923 209.424,297.756 209.5,295C 210.4,288.534 210.733,282.034 210.5,275.5C 211.5,275.5 212.5,275.5 213.5,275.5 Z"/></g>
<g><path style="opacity:1" fill="#f37e3b" d="M 213.5,275.5 C 215.167,275.5 216.833,275.5 218.5,275.5C 218.666,281.842 218.5,288.175 218,294.5C 217.392,296.066 216.558,297.4 215.5,298.5C 214.833,298.5 214.167,298.5 213.5,298.5C 214.732,290.825 214.732,283.158 213.5,275.5 Z"/></g>
<g><path style="opacity:1" fill="#eeae47" d="M 215.5,298.5 C 216.558,297.4 217.392,296.066 218,294.5C 218.5,288.175 218.666,281.842 218.5,275.5C 219.568,274.566 220.901,274.232 222.5,274.5C 223.501,282.51 223.501,290.51 222.5,298.5C 220.028,299.766 217.694,299.766 215.5,298.5 Z"/></g>
<g><path style="opacity:1" fill="#eae8e9" d="M 293.5,277.5 C 299.779,277.468 299.779,278.635 293.5,281C 282.333,292.833 271.167,304.667 260,316.5C 260.044,314.721 260.711,313.055 262,311.5C 272.293,299.861 282.793,288.528 293.5,277.5 Z"/></g>
<g><path style="opacity:1" fill="#621b1f" d="M 297.5,280.5 C 300.599,280.092 302.933,281.259 304.5,284C 301.036,284.817 297.702,284.483 294.5,283C 295.571,282.148 296.571,281.315 297.5,280.5 Z"/></g>
<g><path style="opacity:1" fill="#d51d24" d="M 285.5,282.5 C 280.893,285.768 276.559,289.435 272.5,293.5C 275.173,288.313 278.84,283.813 283.5,280C 290.495,276.323 291.162,277.156 285.5,282.5 Z"/></g>
<g><path style="opacity:1" fill="#e9e8e8" d="M 259.5,295.5 C 258.596,294.791 258.263,293.791 258.5,292.5C 261.767,290.573 264.767,288.239 267.5,285.5C 268.646,286.145 269.646,286.978 270.5,288C 266.805,290.51 263.138,293.01 259.5,295.5 Z"/></g>
<g><path style="opacity:1" fill="#661b1f" d="M 291.5,286.5 C 295.857,286.586 300.19,286.92 304.5,287.5C 304.5,288.833 304.5,290.167 304.5,291.5C 299.339,291.529 294.339,290.695 289.5,289C 290.381,288.292 291.047,287.458 291.5,286.5 Z"/></g>
<g><path style="opacity:1" fill="#dc1d24" d="M 271.5,292.5 C 270.71,293.609 270.21,294.942 270,296.5C 267.391,299.503 264.225,301.003 260.5,301C 259.748,300.329 259.414,299.496 259.5,298.5C 262.586,295.777 265.92,293.277 269.5,291C 270.816,290.472 271.483,290.972 271.5,292.5 Z"/></g>
<g><path style="opacity:1" fill="#671b1f" d="M 285.5,292.5 C 290.813,293.661 296.146,294.828 301.5,296C 300.543,298.628 298.709,300.128 296,300.5C 291.056,299.712 286.223,298.545 281.5,297C 283.041,295.629 284.375,294.129 285.5,292.5 Z"/></g>
<g><path style="opacity:1" fill="#83797b" d="M 258.5,292.5 C 258.263,293.791 258.596,294.791 259.5,295.5C 257.813,297.166 255.813,298.5 253.5,299.5C 252.548,297.955 252.215,296.288 252.5,294.5C 254.703,294.396 256.703,293.73 258.5,292.5 Z"/></g>
<g><path style="opacity:1" fill="#7d1b21" d="M 285.5,282.5 C 276.67,292.165 268.003,301.999 259.5,312C 258.668,312.688 258.002,312.521 257.5,311.5C 255.517,308.397 254.684,305.064 255,301.5C 256.271,300.117 257.771,299.117 259.5,298.5C 259.414,299.496 259.748,300.329 260.5,301C 264.225,301.003 267.391,299.503 270,296.5C 270.21,294.942 270.71,293.609 271.5,292.5C 271.5,293.167 271.833,293.5 272.5,293.5C 276.559,289.435 280.893,285.768 285.5,282.5 Z"/></g>
<g><path style="opacity:1" fill="#d9d6d7" d="M 207.5,300.5 C 207.917,299.876 208.584,299.543 209.5,299.5C 214.507,300.065 219.507,300.732 224.5,301.5C 224.291,302.086 223.957,302.586 223.5,303C 217.753,304.166 212.419,303.332 207.5,300.5 Z"/></g>
<g><path style="opacity:1" fill="#661b1f" d="M 278.5,299.5 C 284.098,301.15 289.765,302.65 295.5,304C 294.039,307.15 291.539,308.65 288,308.5C 283.299,307.867 278.799,306.7 274.5,305C 275.665,303.008 276.998,301.175 278.5,299.5 Z"/></g>
<g><path style="opacity:1" fill="#671b20" d="M 212.5,305.5 C 208.853,306.971 207.853,309.471 209.5,313C 210.448,313.483 211.448,313.649 212.5,313.5C 209.855,315.31 206.855,316.31 203.5,316.5C 203.766,311.627 204.932,306.96 207,302.5C 208.78,303.639 210.614,304.639 212.5,305.5 Z"/></g>
<g><path style="opacity:1" fill="#d51d24" d="M 212.5,305.5 C 213.239,305.369 213.906,305.536 214.5,306C 212.384,307.171 211.718,308.671 212.5,310.5C 219.174,305.649 226.507,304.316 234.5,306.5C 231.5,307.167 228.5,307.833 225.5,308.5C 221.447,309.35 217.447,310.516 213.5,312C 212.944,312.383 212.611,312.883 212.5,313.5C 211.448,313.649 210.448,313.483 209.5,313C 207.853,309.471 208.853,306.971 212.5,305.5 Z"/></g>
<g><path style="opacity:1" fill="#7c1c20" d="M 234.5,306.5 C 235.289,306.783 235.956,307.283 236.5,308C 232.848,308.499 229.182,308.665 225.5,308.5C 228.5,307.833 231.5,307.167 234.5,306.5 Z"/></g>
<g><path style="opacity:1" fill="#661b1f" d="M 271.5,307.5 C 276.821,308.83 282.155,310.164 287.5,311.5C 284.836,314.669 281.503,315.835 277.5,315C 274.216,313.875 270.883,312.875 267.5,312C 269.041,310.629 270.375,309.129 271.5,307.5 Z"/></g>
<g><path style="opacity:1" fill="#611b1f" d="M 227.5,315.5 C 228.946,314.387 230.613,314.22 232.5,315C 234.833,316.667 237.167,318.333 239.5,320C 238.975,320.692 238.308,321.192 237.5,321.5C 234.111,319.477 230.778,317.477 227.5,315.5 Z"/></g>
<g><path style="opacity:1" fill="#611b1f" d="M 220.5,315.5 C 221.873,315.343 223.207,315.51 224.5,316C 227.997,318.583 231.664,320.916 235.5,323C 234.128,323.402 232.795,323.902 231.5,324.5C 227.332,322.25 223.332,319.75 219.5,317C 220.056,316.617 220.389,316.117 220.5,315.5 Z"/></g>
<g><path style="opacity:1" fill="#671b1f" d="M 263.5,315.5 C 279.036,316.333 279.703,318.333 265.5,321.5C 261.319,320.495 260.653,318.495 263.5,315.5 Z"/></g>
<g><path style="opacity:1" fill="#d5d2d2" d="M 226.5,309.5 C 230.273,309.263 233.94,309.763 237.5,311C 225.022,311.046 214.189,315.212 205,323.5C 203.731,322.095 203.231,320.429 203.5,318.5C 205.927,318.477 208.26,317.977 210.5,317C 215.804,314.178 221.137,311.678 226.5,309.5 Z"/></g>
<g><path style="opacity:1" fill="#601b1f" d="M 213.5,318.5 C 218.655,320.072 223.655,322.238 228.5,325C 221.994,326.076 216.994,323.909 213.5,318.5 Z"/></g>
<g><path style="opacity:1" fill="#621b1f" d="M 209.5,321.5 C 212.223,322.352 214.89,323.519 217.5,325C 213.833,325.667 210.167,325.667 206.5,325C 207.71,323.961 208.71,322.794 209.5,321.5 Z"/></g>
<g><path style="opacity:1" fill="#f8b549" d="M 270.5,346.5 C 281.857,347.44 282.524,351.273 272.5,358C 270.541,358.931 268.541,359.764 266.5,360.5C 265.167,362.167 265.167,363.833 266.5,365.5C 269.962,363.609 273.628,363.109 277.5,364C 279.077,367.482 278.077,370.148 274.5,372C 271.691,373.741 268.691,374.908 265.5,375.5C 265.825,380.599 265.325,385.599 264,390.5C 262.333,391.833 260.667,391.833 259,390.5C 258.333,388.5 257.667,386.5 257,384.5C 256.333,374.167 256.333,363.833 257,353.5C 261.232,350.469 265.732,348.135 270.5,346.5 Z"/></g>
<g><path style="opacity:1" fill="#f6b449" d="M 161.5,348.5 C 163.467,348.261 165.301,348.594 167,349.5C 170.032,354.23 172.532,359.23 174.5,364.5C 176.865,358.933 179.865,353.766 183.5,349C 186.636,347.959 189.136,348.793 191,351.5C 193.928,358.521 195.094,365.854 194.5,373.5C 194.333,377.833 194.167,382.167 194,386.5C 193.697,388.888 192.863,391.055 191.5,393C 189.591,393.448 188.424,392.615 188,390.5C 186.239,383.79 184.572,377.123 183,370.5C 182.07,377.96 179.57,384.793 175.5,391C 174.551,391.617 173.718,391.451 173,390.5C 169.592,383.872 167.259,376.872 166,369.5C 165.836,375.975 164.836,382.309 163,388.5C 161.899,392.6 159.899,393.267 157,390.5C 152.543,375.738 154.043,361.738 161.5,348.5 Z"/></g>
<g><path style="opacity:1" fill="#f3b249" d="M 289.5,348.5 C 294.562,348.405 296.562,350.905 295.5,356C 294.605,367.163 294.438,378.33 295,389.5C 293.62,392.481 291.454,393.147 288.5,391.5C 285.541,384.517 284.207,377.184 284.5,369.5C 284.017,361.898 285.684,354.898 289.5,348.5 Z"/></g>
<g><path style="opacity:1" fill="#e9ab47" d="M 307.5,348.5 C 313.798,347.931 314.798,349.764 310.5,354C 305.289,354.546 304.289,352.713 307.5,348.5 Z"/></g>
<g><path style="opacity:1" fill="#f1b048" d="M 308.5,357.5 C 310.752,357.916 312.252,359.249 313,361.5C 313.667,369.5 313.667,377.5 313,385.5C 312.714,390.488 310.381,392.154 306,390.5C 303.601,382.328 302.934,373.994 304,365.5C 304.754,362.316 306.254,359.649 308.5,357.5 Z"/></g>
<g><path style="opacity:1" fill="#f5b349" d="M 205.5,358.5 C 207.981,358.323 209.814,359.323 211,361.5C 211.333,366.5 211.667,371.5 212,376.5C 214.84,379.371 217.174,379.037 219,375.5C 219.333,371.167 219.667,366.833 220,362.5C 220.949,359.8 222.783,358.967 225.5,360C 227.487,361.319 228.654,363.152 229,365.5C 231.875,378.664 230.542,391.331 225,403.5C 219.026,409.786 212.693,410.119 206,404.5C 205.28,402.888 205.446,401.388 206.5,400C 209.202,399.393 211.868,399.56 214.5,400.5C 216.029,400.471 217.196,399.804 218,398.5C 220.438,393.755 221.438,388.755 221,383.5C 216.47,390.588 211.137,391.255 205,385.5C 201.51,376.37 201.677,367.37 205.5,358.5 Z"/></g>
<g><path style="opacity:1" fill="#f6b449" d="M 342.5,358.5 C 344.948,358.085 346.281,359.085 346.5,361.5C 344.614,366.94 341.947,371.94 338.5,376.5C 341.874,380.576 343.54,385.243 343.5,390.5C 341.801,390.66 340.134,390.494 338.5,390C 336.333,387.833 334.167,385.667 332,383.5C 329.881,387.455 326.715,390.122 322.5,391.5C 320.833,391.167 319.833,390.167 319.5,388.5C 321.398,383.935 323.731,379.601 326.5,375.5C 323.282,370.951 321.782,365.951 322,360.5C 323.388,359.446 324.888,359.28 326.5,360C 329.273,362.383 331.439,365.217 333,368.5C 335.696,364.639 338.863,361.306 342.5,358.5 Z"/></g>
<g><path style="opacity:1" fill="#a89d8d" d="M 183.5,405.5 C 186.957,405.667 187.29,406.667 184.5,408.5C 183.614,407.675 183.281,406.675 183.5,405.5 Z"/></g>
<g><path style="opacity:1" fill="#d7cbaf" d="M 161.5,405.5 C 162.675,405.281 163.675,405.614 164.5,406.5C 163.117,410.75 162.117,415.083 161.5,419.5C 160.5,419.5 159.5,419.5 158.5,419.5C 159.249,414.752 160.249,410.085 161.5,405.5 Z"/></g>
<g><path style="opacity:1" fill="#d7cbaf" d="M 172.5,405.5 C 173.675,405.281 174.675,405.614 175.5,406.5C 174.117,410.75 173.117,415.083 172.5,419.5C 171.5,419.5 170.5,419.5 169.5,419.5C 170.249,414.752 171.249,410.085 172.5,405.5 Z"/></g>
<g><path style="opacity:1" fill="#e1d5b6" d="M 260.5,405.5 C 261.675,405.281 262.675,405.614 263.5,406.5C 260.531,407.668 260.198,409.001 262.5,410.5C 259.923,412.92 258.923,415.92 259.5,419.5C 258.5,419.5 257.5,419.5 256.5,419.5C 256.872,416.383 256.872,413.383 256.5,410.5C 257.866,408.773 259.2,407.106 260.5,405.5 Z"/></g>
<g><path style="opacity:1" fill="#ded2b4" d="M 127.5,406.5 C 129.167,406.5 130.833,406.5 132.5,406.5C 131.67,418.155 133.17,418.489 137,407.5C 138.356,406.62 139.856,406.286 141.5,406.5C 140.575,410.79 139.909,415.124 139.5,419.5C 138.5,419.5 137.5,419.5 136.5,419.5C 138.125,410.832 137.291,410.498 134,418.5C 132.989,419.337 131.822,419.67 130.5,419.5C 130.475,408.931 129.809,408.931 128.5,419.5C 127.5,419.5 126.5,419.5 125.5,419.5C 126.425,415.21 127.091,410.876 127.5,406.5 Z"/></g>
<g><path style="opacity:1" fill="#9c9184" d="M 150.5,405.5 C 152.048,405.821 152.715,406.821 152.5,408.5C 149.752,408.598 149.086,407.598 150.5,405.5 Z"/></g>
<g><path style="opacity:1" fill="#9b9184" d="M 338.5,405.5 C 341.957,405.667 342.29,406.667 339.5,408.5C 338.614,407.675 338.281,406.675 338.5,405.5 Z"/></g>
<g><path style="opacity:1" fill="#e5d9b9" d="M 280.5,409.5 C 285.083,409.791 289.749,409.791 294.5,409.5C 294.74,412.579 294.407,415.579 293.5,418.5C 292.5,419.833 291.5,419.833 290.5,418.5C 291.724,416.161 291.724,413.828 290.5,411.5C 289.914,411.709 289.414,412.043 289,412.5C 288.503,414.81 288.337,417.143 288.5,419.5C 287.5,419.5 286.5,419.5 285.5,419.5C 285.949,416.71 285.949,414.044 285.5,411.5C 282.828,413.425 281.828,416.092 282.5,419.5C 281.5,419.5 280.5,419.5 279.5,419.5C 279.833,416.167 280.167,412.833 280.5,409.5 Z"/></g>
<g><path style="opacity:1" fill="#e4d8b9" d="M 149.5,409.5 C 150.693,409.97 151.36,410.97 151.5,412.5C 151.003,414.818 150.67,417.152 150.5,419.5C 149.5,419.5 148.5,419.5 147.5,419.5C 147.788,416.061 148.454,412.728 149.5,409.5 Z"/></g>
<g><path style="opacity:1" fill="#ddd0b3" d="M 182.5,409.5 C 183.5,409.5 184.5,409.5 185.5,409.5C 184.949,412.807 184.616,416.14 184.5,419.5C 183.5,419.5 182.5,419.5 181.5,419.5C 181.46,416.119 181.793,412.786 182.5,409.5 Z"/></g>
<g><path style="opacity:1" fill="#e5d8b9" d="M 195.5,409.5 C 201.674,408.173 203.841,410.506 202,416.5C 199.339,419.966 196.339,420.299 193,417.5C 192.018,414.225 192.851,411.559 195.5,409.5 Z"/></g>
<g><path style="opacity:1" fill="#e1d5b6" d="M 211.5,409.5 C 214.448,409.223 217.281,409.556 220,410.5C 220.044,413.475 219.877,416.475 219.5,419.5C 218.5,419.5 217.5,419.5 216.5,419.5C 216.575,416.794 216.908,414.127 217.5,411.5C 216.178,411.33 215.011,411.663 214,412.5C 213.338,414.813 212.838,417.146 212.5,419.5C 211.5,419.5 210.5,419.5 209.5,419.5C 210.04,416.135 210.706,412.802 211.5,409.5 Z"/></g>
<g><path style="opacity:1" fill="#e5d8b9" d="M 241.5,409.5 C 247.674,408.173 249.841,410.506 248,416.5C 245.339,419.966 242.339,420.299 239,417.5C 238.018,414.225 238.851,411.559 241.5,409.5 Z"/></g>
<g><path style="opacity:1" fill="#e3d7b8" d="M 305.5,409.5 C 313.064,409.891 314.397,413.057 309.5,419C 302.923,420.591 300.756,418.091 303,411.5C 303.995,410.934 304.828,410.267 305.5,409.5 Z"/></g>
<g><path style="opacity:1" fill="#e3d7b8" d="M 320.5,409.5 C 321.5,409.5 322.5,409.5 323.5,409.5C 322.945,418.278 324.111,418.611 327,410.5C 328.049,409.483 329.216,409.316 330.5,410C 328.455,412.586 326.789,415.42 325.5,418.5C 324.311,419.429 322.978,419.762 321.5,419.5C 320.949,416.193 320.616,412.86 320.5,409.5 Z"/></g>
<g><path style="opacity:1" fill="#dbcfb2" d="M 337.5,409.5 C 338.5,409.5 339.5,409.5 340.5,409.5C 339.833,412.833 339.167,416.167 338.5,419.5C 337.5,419.5 336.5,419.5 335.5,419.5C 336.04,416.135 336.706,412.802 337.5,409.5 Z"/></g>
<g><path style="opacity:1" fill="#e2d6b7" d="M 349.5,409.5 C 354.339,408.677 356.673,410.677 356.5,415.5C 354.396,415.201 352.396,415.534 350.5,416.5C 351.533,417.452 352.7,417.452 354,416.5C 355.826,417.01 355.993,417.844 354.5,419C 352.5,419.667 350.5,419.667 348.5,419C 347.01,415.603 347.344,412.436 349.5,409.5 Z"/></g>
<g><path style="opacity:1" fill="#e1d5b6" d="M 365.5,409.5 C 367.792,409.244 369.959,409.577 372,410.5C 372.688,411.332 372.521,411.998 371.5,412.5C 370.109,411.355 368.776,411.355 367.5,412.5C 369.737,413.132 371.403,414.465 372.5,416.5C 370.291,419.566 367.457,420.232 364,418.5C 363.312,417.668 363.479,417.002 364.5,416.5C 370.982,417.806 371.149,417.139 365,414.5C 364.36,412.735 364.527,411.068 365.5,409.5 Z"/></g>
<g><path style="opacity:1" fill="#2c2533" d="M 196.5,411.5 C 197.5,411.5 198.5,411.5 199.5,411.5C 200.401,415.241 199.068,417.241 195.5,417.5C 195.325,415.379 195.659,413.379 196.5,411.5 Z"/></g>
<g><path style="opacity:1" fill="#2c2533" d="M 242.5,411.5 C 243.5,411.5 244.5,411.5 245.5,411.5C 246.401,415.241 245.068,417.241 241.5,417.5C 241.325,415.379 241.659,413.379 242.5,411.5 Z"/></g>
<g><path style="opacity:1" fill="#2c2533" d="M 306.5,411.5 C 307.5,411.5 308.5,411.5 309.5,411.5C 310.113,414.969 308.779,416.969 305.5,417.5C 305.325,415.379 305.659,413.379 306.5,411.5 Z"/></g>
<g><path style="opacity:1" fill="#39313d" d="M 350.5,411.5 C 351.675,411.281 352.675,411.614 353.5,412.5C 351.948,413.798 350.948,413.465 350.5,411.5 Z"/></g>
</svg>
